<?xml version="1.0" encoding="UTF-8"?>
<mxfile host="Electron" modified="2023-07-14T03:58:55.376Z" agent="Mozilla/5.0 (Macintosh; Intel Mac OS X 10_15_7) AppleWebKit/537.36 (KHTML, like Gecko) draw.io/21.2.1 Chrome/112.0.5615.87 Electron/24.1.2 Safari/537.36" etag="M4XvcjNqDYREae0mxM5V" version="21.2.1" type="device">
  <diagram id="Io6Ad0xlpwwLlJyYEbIs" name="Car_Placement">
    <mxGraphModel dx="3136" dy="-656" grid="1" gridSize="10" guides="1" tooltips="1" connect="1" arrows="1" fold="1" page="0" pageScale="1" pageWidth="850" pageHeight="1100" math="0" shadow="0">
      <root>
        <mxCell id="0" />
        <mxCell id="1" parent="0" />
        <mxCell id="6IxY4aVY8u-sVjT7Nd2_-1" value="" style="group;strokeWidth=4;" parent="1" vertex="1" connectable="0">
          <mxGeometry x="1050" y="3290" width="3300" height="1806" as="geometry" />
        </mxCell>
        <mxCell id="6IxY4aVY8u-sVjT7Nd2_-2" value="" style="endArrow=none;html=1;rounded=0;strokeWidth=4;spacingBottom=-1;" parent="6IxY4aVY8u-sVjT7Nd2_-1" edge="1">
          <mxGeometry width="50" height="50" relative="1" as="geometry">
            <mxPoint y="622.9603238866397" as="sourcePoint" />
            <mxPoint x="650.1814223512336" y="614.1862348178138" as="targetPoint" />
          </mxGeometry>
        </mxCell>
        <mxCell id="6IxY4aVY8u-sVjT7Nd2_-3" value="" style="endArrow=none;html=1;rounded=0;strokeWidth=4;spacingBottom=-1;" parent="6IxY4aVY8u-sVjT7Nd2_-1" edge="1">
          <mxGeometry width="50" height="50" relative="1" as="geometry">
            <mxPoint x="648.9840348330914" y="614.1862348178138" as="sourcePoint" />
            <mxPoint x="1513.497822931785" y="529.3700404858299" as="targetPoint" />
            <Array as="points">
              <mxPoint x="719.6298984034831" y="529.3700404858299" />
            </Array>
          </mxGeometry>
        </mxCell>
        <mxCell id="6IxY4aVY8u-sVjT7Nd2_-4" value="" style="endArrow=none;html=1;rounded=0;strokeWidth=4;spacingBottom=-1;" parent="6IxY4aVY8u-sVjT7Nd2_-1" edge="1">
          <mxGeometry width="50" height="50" relative="1" as="geometry">
            <mxPoint x="28.737300435413637" y="873.0218623481782" as="sourcePoint" />
            <mxPoint x="1.1973875181422349" y="622.9603238866397" as="targetPoint" />
          </mxGeometry>
        </mxCell>
        <mxCell id="6IxY4aVY8u-sVjT7Nd2_-5" value="" style="endArrow=none;html=1;rounded=0;exitX=1;exitY=0.5;exitDx=0;exitDy=0;strokeWidth=4;spacingBottom=-1;" parent="6IxY4aVY8u-sVjT7Nd2_-1" edge="1">
          <mxGeometry width="50" height="50" relative="1" as="geometry">
            <mxPoint x="1229.7169811320753" y="886.182995951417" as="sourcePoint" />
            <mxPoint x="1418.9042089985485" y="718.012955465587" as="targetPoint" />
            <Array as="points">
              <mxPoint x="1291.9811320754714" y="842.3125506072874" />
            </Array>
          </mxGeometry>
        </mxCell>
        <mxCell id="6IxY4aVY8u-sVjT7Nd2_-6" value="" style="endArrow=none;html=1;rounded=0;strokeWidth=4;spacingBottom=-1;" parent="6IxY4aVY8u-sVjT7Nd2_-1" edge="1">
          <mxGeometry width="50" height="50" relative="1" as="geometry">
            <mxPoint x="1418.9042089985485" y="718.012955465587" as="sourcePoint" />
            <mxPoint x="1513.497822931785" y="529.3700404858299" as="targetPoint" />
          </mxGeometry>
        </mxCell>
        <mxCell id="6IxY4aVY8u-sVjT7Nd2_-7" value="" style="endArrow=none;html=1;rounded=0;strokeWidth=4;spacingBottom=-1;" parent="6IxY4aVY8u-sVjT7Nd2_-1" edge="1">
          <mxGeometry width="50" height="50" relative="1" as="geometry">
            <mxPoint x="596.2989840348331" y="873.0218623481782" as="sourcePoint" />
            <mxPoint x="797.4600870827285" y="529.3700404858299" as="targetPoint" />
          </mxGeometry>
        </mxCell>
        <mxCell id="6IxY4aVY8u-sVjT7Nd2_-8" value="" style="endArrow=none;html=1;rounded=0;strokeWidth=4;spacingBottom=-1;" parent="6IxY4aVY8u-sVjT7Nd2_-1" edge="1">
          <mxGeometry width="50" height="50" relative="1" as="geometry">
            <mxPoint x="161.6473149492017" y="878.8712550607287" as="sourcePoint" />
            <mxPoint x="161.6473149492017" y="621.4979757085019" as="targetPoint" />
          </mxGeometry>
        </mxCell>
        <mxCell id="6IxY4aVY8u-sVjT7Nd2_-9" value="" style="endArrow=none;html=1;rounded=0;strokeWidth=4;spacingBottom=-1;" parent="6IxY4aVY8u-sVjT7Nd2_-1" edge="1">
          <mxGeometry width="50" height="50" relative="1" as="geometry">
            <mxPoint x="113.75181422351231" y="877.408906882591" as="sourcePoint" />
            <mxPoint x="114.94920174165455" y="621.4979757085019" as="targetPoint" />
          </mxGeometry>
        </mxCell>
        <mxCell id="6IxY4aVY8u-sVjT7Nd2_-10" value="" style="endArrow=none;html=1;rounded=0;strokeWidth=4;spacingBottom=-1;" parent="6IxY4aVY8u-sVjT7Nd2_-1" edge="1">
          <mxGeometry width="50" height="50" relative="1" as="geometry">
            <mxPoint x="796.2626995645862" y="530.8323886639675" as="sourcePoint" />
            <mxPoint x="895.6458635703917" y="87.7408906882591" as="targetPoint" />
          </mxGeometry>
        </mxCell>
        <mxCell id="6IxY4aVY8u-sVjT7Nd2_-11" value="" style="endArrow=none;html=1;rounded=0;strokeWidth=4;spacingBottom=-1;" parent="6IxY4aVY8u-sVjT7Nd2_-1" edge="1">
          <mxGeometry width="50" height="50" relative="1" as="geometry">
            <mxPoint x="895.6458635703917" y="89.20323886639676" as="sourcePoint" />
            <mxPoint x="1038.1349782293178" y="84.81619433198381" as="targetPoint" />
          </mxGeometry>
        </mxCell>
        <mxCell id="6IxY4aVY8u-sVjT7Nd2_-12" value="" style="endArrow=none;html=1;rounded=0;strokeWidth=4;spacingBottom=-1;" parent="6IxY4aVY8u-sVjT7Nd2_-1" edge="1">
          <mxGeometry width="50" height="50" relative="1" as="geometry">
            <mxPoint x="1038.1349782293178" y="84.81619433198381" as="sourcePoint" />
            <mxPoint x="1038.1349782293178" y="530.8323886639675" as="targetPoint" />
          </mxGeometry>
        </mxCell>
        <mxCell id="6IxY4aVY8u-sVjT7Nd2_-13" value="" style="endArrow=none;html=1;rounded=0;strokeWidth=4;spacingBottom=-1;" parent="6IxY4aVY8u-sVjT7Nd2_-1" edge="1">
          <mxGeometry width="50" height="50" relative="1" as="geometry">
            <mxPoint x="1030.9506531204643" y="877.408906882591" as="sourcePoint" />
            <mxPoint x="1039.33236574746" y="529.3700404858299" as="targetPoint" />
          </mxGeometry>
        </mxCell>
        <mxCell id="6IxY4aVY8u-sVjT7Nd2_-14" value="" style="endArrow=none;html=1;rounded=0;strokeWidth=4;spacingBottom=-1;" parent="6IxY4aVY8u-sVjT7Nd2_-1" edge="1">
          <mxGeometry width="50" height="50" relative="1" as="geometry">
            <mxPoint x="26.342525399129173" y="875.9465587044534" as="sourcePoint" />
            <mxPoint x="1052.5054724409977" y="885.4848571569332" as="targetPoint" />
          </mxGeometry>
        </mxCell>
        <mxCell id="6IxY4aVY8u-sVjT7Nd2_-15" value="" style="endArrow=none;html=1;rounded=0;spacingBottom=-1;" parent="6IxY4aVY8u-sVjT7Nd2_-1" edge="1">
          <mxGeometry width="50" height="50" relative="1" as="geometry">
            <mxPoint x="1849.963715529753" y="329.02834008097165" as="sourcePoint" />
            <mxPoint x="2193.613933236574" y="327.56599190283396" as="targetPoint" />
          </mxGeometry>
        </mxCell>
        <mxCell id="6IxY4aVY8u-sVjT7Nd2_-16" value="" style="endArrow=none;html=1;rounded=0;spacingBottom=-1;" parent="6IxY4aVY8u-sVjT7Nd2_-1" edge="1">
          <mxGeometry width="50" height="50" relative="1" as="geometry">
            <mxPoint x="2192.416545718432" y="327.56599190283396" as="sourcePoint" />
            <mxPoint x="2689.33236574746" y="274.92145748987855" as="targetPoint" />
          </mxGeometry>
        </mxCell>
        <mxCell id="6IxY4aVY8u-sVjT7Nd2_-17" value="" style="endArrow=none;html=1;rounded=0;strokeWidth=4;spacingBottom=-1;" parent="6IxY4aVY8u-sVjT7Nd2_-1" edge="1">
          <mxGeometry width="50" height="50" relative="1" as="geometry">
            <mxPoint x="2688.1349782293173" y="274.92145748987855" as="sourcePoint" />
            <mxPoint x="3299.9999999999995" y="264.68502024291496" as="targetPoint" />
          </mxGeometry>
        </mxCell>
        <mxCell id="6IxY4aVY8u-sVjT7Nd2_-18" value="" style="endArrow=none;html=1;rounded=0;spacingBottom=-1;" parent="6IxY4aVY8u-sVjT7Nd2_-1" edge="1">
          <mxGeometry width="50" height="50" relative="1" as="geometry">
            <mxPoint x="1849.963715529753" y="701.9271255060728" as="sourcePoint" />
            <mxPoint x="1849.963715529753" y="329.02834008097165" as="targetPoint" />
          </mxGeometry>
        </mxCell>
        <mxCell id="6IxY4aVY8u-sVjT7Nd2_-19" value="" style="endArrow=none;html=1;rounded=0;spacingBottom=-1;" parent="6IxY4aVY8u-sVjT7Nd2_-1" edge="1">
          <mxGeometry width="50" height="50" relative="1" as="geometry">
            <mxPoint x="1848.7663280116108" y="701.9271255060728" as="sourcePoint" />
            <mxPoint x="2192.416545718432" y="696.0777327935223" as="targetPoint" />
          </mxGeometry>
        </mxCell>
        <mxCell id="6IxY4aVY8u-sVjT7Nd2_-20" value="" style="endArrow=none;html=1;rounded=0;strokeWidth=4;spacingBottom=-1;" parent="6IxY4aVY8u-sVjT7Nd2_-1" edge="1">
          <mxGeometry width="50" height="50" relative="1" as="geometry">
            <mxPoint x="2700.1088534107403" y="756.034008097166" as="sourcePoint" />
            <mxPoint x="3294.0130624092885" y="745.7975708502023" as="targetPoint" />
          </mxGeometry>
        </mxCell>
        <mxCell id="6IxY4aVY8u-sVjT7Nd2_-21" value="" style="endArrow=none;html=1;rounded=0;strokeWidth=4;spacingBottom=-1;" parent="6IxY4aVY8u-sVjT7Nd2_-1" edge="1">
          <mxGeometry width="50" height="50" relative="1" as="geometry">
            <mxPoint x="3294.0130624092885" y="744.3352226720648" as="sourcePoint" />
            <mxPoint x="3297.605224963715" y="266.14736842105265" as="targetPoint" />
          </mxGeometry>
        </mxCell>
        <mxCell id="6IxY4aVY8u-sVjT7Nd2_-22" value="" style="endArrow=none;html=1;rounded=0;strokeWidth=4;spacingBottom=-1;" parent="6IxY4aVY8u-sVjT7Nd2_-1" edge="1">
          <mxGeometry width="50" height="50" relative="1" as="geometry">
            <mxPoint x="2191.21915820029" y="696.0777327935223" as="sourcePoint" />
            <mxPoint x="2704.898403483309" y="756.034008097166" as="targetPoint" />
          </mxGeometry>
        </mxCell>
        <mxCell id="6IxY4aVY8u-sVjT7Nd2_-23" value="" style="endArrow=none;html=1;rounded=0;strokeWidth=4;spacingBottom=-1;" parent="6IxY4aVY8u-sVjT7Nd2_-1" edge="1">
          <mxGeometry width="50" height="50" relative="1" as="geometry">
            <mxPoint x="3098.838896952104" y="748.7222672064777" as="sourcePoint" />
            <mxPoint x="3100.0362844702463" y="269.0720647773279" as="targetPoint" />
          </mxGeometry>
        </mxCell>
        <mxCell id="6IxY4aVY8u-sVjT7Nd2_-24" value="" style="endArrow=none;html=1;rounded=0;strokeWidth=4;spacingBottom=-1;" parent="6IxY4aVY8u-sVjT7Nd2_-1" edge="1">
          <mxGeometry width="50" height="50" relative="1" as="geometry">
            <mxPoint x="3098.838896952104" y="748.7222672064777" as="sourcePoint" />
            <mxPoint x="3296.407837445573" y="266.14736842105265" as="targetPoint" />
          </mxGeometry>
        </mxCell>
        <mxCell id="6IxY4aVY8u-sVjT7Nd2_-25" value="" style="endArrow=none;html=1;rounded=0;strokeWidth=4;spacingBottom=-1;" parent="6IxY4aVY8u-sVjT7Nd2_-1" edge="1">
          <mxGeometry width="50" height="50" relative="1" as="geometry">
            <mxPoint x="3294.0130624092885" y="745.7975708502023" as="sourcePoint" />
            <mxPoint x="3101.2336719883883" y="267.6097165991902" as="targetPoint" />
          </mxGeometry>
        </mxCell>
        <mxCell id="6IxY4aVY8u-sVjT7Nd2_-26" value="" style="endArrow=none;html=1;rounded=0;spacingBottom=-1;" parent="6IxY4aVY8u-sVjT7Nd2_-1" edge="1">
          <mxGeometry width="50" height="50" relative="1" as="geometry">
            <mxPoint x="2073.875181422351" y="696.0777327935223" as="sourcePoint" />
            <mxPoint x="2073.875181422351" y="330.49068825910933" as="targetPoint" />
          </mxGeometry>
        </mxCell>
        <mxCell id="6IxY4aVY8u-sVjT7Nd2_-27" value="" style="endArrow=none;html=1;rounded=0;spacingBottom=-1;" parent="6IxY4aVY8u-sVjT7Nd2_-1" edge="1">
          <mxGeometry width="50" height="50" relative="1" as="geometry">
            <mxPoint x="2125.362844702467" y="693.1530364372469" as="sourcePoint" />
            <mxPoint x="2125.362844702467" y="327.56599190283396" as="targetPoint" />
          </mxGeometry>
        </mxCell>
        <mxCell id="6IxY4aVY8u-sVjT7Nd2_-28" value="" style="endArrow=none;html=1;rounded=0;spacingBottom=-1;" parent="6IxY4aVY8u-sVjT7Nd2_-1" edge="1">
          <mxGeometry width="50" height="50" relative="1" as="geometry">
            <mxPoint x="2191.21915820029" y="693.1530364372469" as="sourcePoint" />
            <mxPoint x="2191.21915820029" y="327.56599190283396" as="targetPoint" />
          </mxGeometry>
        </mxCell>
        <mxCell id="6IxY4aVY8u-sVjT7Nd2_-29" value="" style="endArrow=none;html=1;rounded=0;spacingBottom=-1;" parent="6IxY4aVY8u-sVjT7Nd2_-1" edge="1">
          <mxGeometry width="50" height="50" relative="1" as="geometry">
            <mxPoint x="2387.590711175617" y="374.36113360323884" as="sourcePoint" />
            <mxPoint x="2447.460087082728" y="301.24372469635625" as="targetPoint" />
          </mxGeometry>
        </mxCell>
        <mxCell id="6IxY4aVY8u-sVjT7Nd2_-30" value="" style="endArrow=none;html=1;rounded=0;strokeWidth=4;spacingBottom=-1;" parent="6IxY4aVY8u-sVjT7Nd2_-1" edge="1">
          <mxGeometry width="50" height="50" relative="1" as="geometry">
            <mxPoint x="2447.460087082728" y="723.8623481781376" as="sourcePoint" />
            <mxPoint x="2383.9985486211895" y="655.1319838056679" as="targetPoint" />
          </mxGeometry>
        </mxCell>
        <mxCell id="6IxY4aVY8u-sVjT7Nd2_-31" value="" style="endArrow=none;html=1;rounded=0;strokeWidth=4;spacingBottom=-1;" parent="6IxY4aVY8u-sVjT7Nd2_-1" edge="1">
          <mxGeometry width="50" height="50" relative="1" as="geometry">
            <mxPoint x="2383.9985486211895" y="655.1319838056679" as="sourcePoint" />
            <mxPoint x="2388.788098693759" y="372.89878542510115" as="targetPoint" />
          </mxGeometry>
        </mxCell>
        <mxCell id="6IxY4aVY8u-sVjT7Nd2_-32" style="edgeStyle=orthogonalEdgeStyle;rounded=0;orthogonalLoop=1;jettySize=auto;html=1;fillColor=#a20025;strokeColor=#6F0000;curved=1;strokeWidth=4;spacingBottom=-1;startArrow=classic;startFill=1;endArrow=none;endFill=0;" parent="6IxY4aVY8u-sVjT7Nd2_-1" source="6IxY4aVY8u-sVjT7Nd2_-34" edge="1">
          <mxGeometry relative="1" as="geometry">
            <mxPoint x="1320.7184325108851" y="530.8323886639675" as="targetPoint" />
            <Array as="points">
              <mxPoint x="1206.966618287373" y="612.723886639676" />
              <mxPoint x="1320.7184325108851" y="612.723886639676" />
            </Array>
          </mxGeometry>
        </mxCell>
        <mxCell id="6IxY4aVY8u-sVjT7Nd2_-33" value="BATT +" style="edgeLabel;html=1;align=center;verticalAlign=middle;resizable=0;points=[];spacingBottom=-1;" parent="6IxY4aVY8u-sVjT7Nd2_-32" vertex="1" connectable="0">
          <mxGeometry x="-0.2599" relative="1" as="geometry">
            <mxPoint x="28" y="-6" as="offset" />
          </mxGeometry>
        </mxCell>
        <mxCell id="6IxY4aVY8u-sVjT7Nd2_-34" value="Battery Box" style="rounded=1;whiteSpace=wrap;html=1;strokeWidth=4;spacingBottom=-1;" parent="6IxY4aVY8u-sVjT7Nd2_-1" vertex="1">
          <mxGeometry x="1052.5036284470245" y="795.5174089068826" width="177.21335268505078" height="95.05263157894737" as="geometry" />
        </mxCell>
        <mxCell id="6IxY4aVY8u-sVjT7Nd2_-35" value="Motor Controller" style="rounded=1;whiteSpace=wrap;html=1;strokeWidth=3;spacingBottom=-1;" parent="6IxY4aVY8u-sVjT7Nd2_-1" vertex="1">
          <mxGeometry x="1038.1349782293178" y="529.3700404858299" width="79.0275761973875" height="64.34331983805667" as="geometry" />
        </mxCell>
        <mxCell id="6IxY4aVY8u-sVjT7Nd2_-36" style="edgeStyle=orthogonalEdgeStyle;rounded=0;orthogonalLoop=1;jettySize=auto;html=1;fillColor=#60a917;strokeColor=#2D7600;strokeWidth=4;spacingBottom=-1;" parent="6IxY4aVY8u-sVjT7Nd2_-1" source="6IxY4aVY8u-sVjT7Nd2_-38" target="6IxY4aVY8u-sVjT7Nd2_-35" edge="1">
          <mxGeometry relative="1" as="geometry">
            <Array as="points">
              <mxPoint x="1167" y="562" />
              <mxPoint x="1167" y="564" />
            </Array>
          </mxGeometry>
        </mxCell>
        <mxCell id="6IxY4aVY8u-sVjT7Nd2_-37" value="Motor_CAN" style="edgeLabel;html=1;align=center;verticalAlign=middle;resizable=0;points=[];spacingBottom=-1;" parent="6IxY4aVY8u-sVjT7Nd2_-36" vertex="1" connectable="0">
          <mxGeometry x="0.2146" y="1" relative="1" as="geometry">
            <mxPoint x="23" y="-3" as="offset" />
          </mxGeometry>
        </mxCell>
        <mxCell id="6IxY4aVY8u-sVjT7Nd2_-38" value="Motor Interface Enclosure" style="rounded=1;whiteSpace=wrap;html=1;strokeWidth=3;spacingBottom=-1;" parent="6IxY4aVY8u-sVjT7Nd2_-1" vertex="1">
          <mxGeometry x="1217.743105950653" y="530.8323886639675" width="70.64586357039187" height="62.88097165991903" as="geometry" />
        </mxCell>
        <mxCell id="6IxY4aVY8u-sVjT7Nd2_-39" style="edgeStyle=orthogonalEdgeStyle;rounded=0;orthogonalLoop=1;jettySize=auto;html=1;fillColor=#a20025;strokeColor=#6F0000;elbow=vertical;curved=1;strokeWidth=4;spacingBottom=-1;exitX=0.994;exitY=0.635;exitDx=0;exitDy=0;exitPerimeter=0;" parent="6IxY4aVY8u-sVjT7Nd2_-1" source="6IxY4aVY8u-sVjT7Nd2_-34" target="6IxY4aVY8u-sVjT7Nd2_-41" edge="1">
          <mxGeometry relative="1" as="geometry">
            <Array as="points">
              <mxPoint x="1311" y="856" />
              <mxPoint x="1311" y="782" />
              <mxPoint x="1397" y="782" />
            </Array>
          </mxGeometry>
        </mxCell>
        <mxCell id="6IxY4aVY8u-sVjT7Nd2_-40" value="BPS Leader 12V" style="edgeLabel;html=1;align=center;verticalAlign=middle;resizable=0;points=[];spacingBottom=-1;" parent="6IxY4aVY8u-sVjT7Nd2_-39" vertex="1" connectable="0">
          <mxGeometry x="-0.0324" y="1" relative="1" as="geometry">
            <mxPoint x="34" y="-116" as="offset" />
          </mxGeometry>
        </mxCell>
        <mxCell id="6IxY4aVY8u-sVjT7Nd2_-41" value="Electronics Enclosure" style="rounded=1;whiteSpace=wrap;html=1;strokeWidth=4;spacingBottom=-1;" parent="6IxY4aVY8u-sVjT7Nd2_-1" vertex="1">
          <mxGeometry x="1303.9550072568939" y="434.3174089068826" width="177.21335268505078" height="95.05263157894737" as="geometry" />
        </mxCell>
        <mxCell id="6IxY4aVY8u-sVjT7Nd2_-42" style="edgeStyle=orthogonalEdgeStyle;rounded=0;orthogonalLoop=1;jettySize=auto;html=1;exitX=1;exitY=0.25;exitDx=0;exitDy=0;entryX=0.5;entryY=1;entryDx=0;entryDy=0;fillColor=#60a917;strokeColor=#2D7600;curved=1;strokeWidth=4;spacingBottom=-1;" parent="6IxY4aVY8u-sVjT7Nd2_-1" source="6IxY4aVY8u-sVjT7Nd2_-34" target="6IxY4aVY8u-sVjT7Nd2_-41" edge="1">
          <mxGeometry relative="1" as="geometry">
            <Array as="points">
              <mxPoint x="1339.8766328011611" y="818.9149797570849" />
              <mxPoint x="1339.8766328011611" y="574.7028340080972" />
              <mxPoint x="1392.5616835994192" y="574.7028340080972" />
            </Array>
          </mxGeometry>
        </mxCell>
        <mxCell id="6IxY4aVY8u-sVjT7Nd2_-43" value="CAR_CAN" style="edgeLabel;html=1;align=center;verticalAlign=middle;resizable=0;points=[];spacingBottom=-1;" parent="6IxY4aVY8u-sVjT7Nd2_-42" vertex="1" connectable="0">
          <mxGeometry x="0.1649" y="17" relative="1" as="geometry">
            <mxPoint as="offset" />
          </mxGeometry>
        </mxCell>
        <mxCell id="6IxY4aVY8u-sVjT7Nd2_-44" style="edgeStyle=orthogonalEdgeStyle;rounded=0;orthogonalLoop=1;jettySize=auto;html=1;entryX=0;entryY=0.5;entryDx=0;entryDy=0;fillColor=#a20025;strokeColor=#6F0000;spacingBottom=-1;strokeWidth=5;" parent="6IxY4aVY8u-sVjT7Nd2_-1" source="6IxY4aVY8u-sVjT7Nd2_-46" target="6IxY4aVY8u-sVjT7Nd2_-41" edge="1">
          <mxGeometry relative="1" as="geometry" />
        </mxCell>
        <mxCell id="6IxY4aVY8u-sVjT7Nd2_-45" value="12V" style="edgeLabel;html=1;align=center;verticalAlign=middle;resizable=0;points=[];spacingBottom=-1;" parent="6IxY4aVY8u-sVjT7Nd2_-44" vertex="1" connectable="0">
          <mxGeometry x="0.2564" relative="1" as="geometry">
            <mxPoint x="-13" as="offset" />
          </mxGeometry>
        </mxCell>
        <mxCell id="6IxY4aVY8u-sVjT7Nd2_-46" value="Supplemental Enclosure" style="rounded=1;whiteSpace=wrap;html=1;strokeWidth=4;spacingBottom=-1;" parent="6IxY4aVY8u-sVjT7Nd2_-1" vertex="1">
          <mxGeometry x="1069.865747460087" y="434.3174089068826" width="177.21335268505078" height="95.05263157894737" as="geometry" />
        </mxCell>
        <mxCell id="6IxY4aVY8u-sVjT7Nd2_-47" value="Radio" style="rounded=1;whiteSpace=wrap;html=1;strokeWidth=4;spacingBottom=-1;" parent="6IxY4aVY8u-sVjT7Nd2_-1" vertex="1">
          <mxGeometry x="1038.1349782293178" y="184.2558704453441" width="63.46153846153845" height="96.51497975708502" as="geometry" />
        </mxCell>
        <mxCell id="6IxY4aVY8u-sVjT7Nd2_-48" style="edgeStyle=orthogonalEdgeStyle;rounded=0;orthogonalLoop=1;jettySize=auto;html=1;entryX=0.99;entryY=0.051;entryDx=0;entryDy=0;entryPerimeter=0;fillColor=#a20025;strokeColor=#6F0000;curved=1;exitX=0.309;exitY=-0.01;exitDx=0;exitDy=0;exitPerimeter=0;strokeWidth=4;spacingBottom=-1;" parent="6IxY4aVY8u-sVjT7Nd2_-1" source="6IxY4aVY8u-sVjT7Nd2_-41" target="6IxY4aVY8u-sVjT7Nd2_-47" edge="1">
          <mxGeometry relative="1" as="geometry">
            <Array as="points">
              <mxPoint x="1361.4296081277212" y="432.8550607287449" />
              <mxPoint x="1361.4296081277212" y="188.64291497975705" />
            </Array>
          </mxGeometry>
        </mxCell>
        <mxCell id="6IxY4aVY8u-sVjT7Nd2_-49" value="Radio 12V" style="edgeLabel;html=1;align=center;verticalAlign=middle;resizable=0;points=[];spacingBottom=-1;" parent="6IxY4aVY8u-sVjT7Nd2_-48" vertex="1" connectable="0">
          <mxGeometry x="0.7177" y="-2" relative="1" as="geometry">
            <mxPoint x="31" y="11" as="offset" />
          </mxGeometry>
        </mxCell>
        <mxCell id="6IxY4aVY8u-sVjT7Nd2_-50" style="edgeStyle=orthogonalEdgeStyle;rounded=0;orthogonalLoop=1;jettySize=auto;html=1;exitX=0.25;exitY=0;exitDx=0;exitDy=0;entryX=1;entryY=0.5;entryDx=0;entryDy=0;fillColor=#0050ef;strokeColor=#001DBC;curved=1;strokeWidth=4;spacingBottom=-1;" parent="6IxY4aVY8u-sVjT7Nd2_-1" source="6IxY4aVY8u-sVjT7Nd2_-41" target="6IxY4aVY8u-sVjT7Nd2_-47" edge="1">
          <mxGeometry relative="1" as="geometry" />
        </mxCell>
        <mxCell id="6IxY4aVY8u-sVjT7Nd2_-51" value="Ethernet" style="edgeLabel;html=1;align=center;verticalAlign=middle;resizable=0;points=[];spacingBottom=-1;" parent="6IxY4aVY8u-sVjT7Nd2_-50" vertex="1" connectable="0">
          <mxGeometry x="0.7439" relative="1" as="geometry">
            <mxPoint as="offset" />
          </mxGeometry>
        </mxCell>
        <mxCell id="6IxY4aVY8u-sVjT7Nd2_-52" value="Top View - HV &amp;amp; Signal" style="text;html=1;strokeColor=none;fillColor=none;align=center;verticalAlign=middle;whiteSpace=wrap;rounded=0;strokeWidth=5;spacingBottom=-1;" parent="6IxY4aVY8u-sVjT7Nd2_-1" vertex="1">
          <mxGeometry x="2592.3439767779387" y="78.9668016194332" width="80.22496371552975" height="43.87044534412955" as="geometry" />
        </mxCell>
        <mxCell id="6IxY4aVY8u-sVjT7Nd2_-53" value="Subarray A" style="rounded=1;whiteSpace=wrap;html=1;spacingBottom=-1;" parent="6IxY4aVY8u-sVjT7Nd2_-1" vertex="1">
          <mxGeometry x="2122.9680696661826" y="134.53603238866395" width="975.8708272859215" height="134.53603238866395" as="geometry" />
        </mxCell>
        <mxCell id="6IxY4aVY8u-sVjT7Nd2_-54" value="&lt;font style=&quot;font-size: 16px;&quot;&gt;Subarray B&lt;/font&gt;" style="rounded=1;whiteSpace=wrap;html=1;strokeWidth=4;spacingBottom=-1;" parent="6IxY4aVY8u-sVjT7Nd2_-1" vertex="1">
          <mxGeometry x="2091.8359941944846" y="756.034008097166" width="1007.0029027576196" height="134.53603238866395" as="geometry" />
        </mxCell>
        <mxCell id="6IxY4aVY8u-sVjT7Nd2_-55" value="Subarray C" style="rounded=1;whiteSpace=wrap;html=1;spacingBottom=-1;" parent="6IxY4aVY8u-sVjT7Nd2_-1" vertex="1">
          <mxGeometry x="1727.830188679245" y="324.6412955465587" width="125.72568940493468" height="372.89878542510115" as="geometry" />
        </mxCell>
        <mxCell id="6IxY4aVY8u-sVjT7Nd2_-56" value="" style="endArrow=none;html=1;rounded=0;strokeWidth=4;spacingBottom=-1;" parent="6IxY4aVY8u-sVjT7Nd2_-1" edge="1">
          <mxGeometry width="50" height="50" relative="1" as="geometry">
            <mxPoint x="2733.6357039187224" y="756.034008097166" as="sourcePoint" />
            <mxPoint x="2733.6357039187224" y="277.8461538461538" as="targetPoint" />
          </mxGeometry>
        </mxCell>
        <mxCell id="6IxY4aVY8u-sVjT7Nd2_-57" value="" style="endArrow=none;html=1;rounded=0;strokeWidth=4;spacingBottom=-1;" parent="6IxY4aVY8u-sVjT7Nd2_-1" edge="1">
          <mxGeometry width="50" height="50" relative="1" as="geometry">
            <mxPoint x="2780.3338171262694" y="753.1093117408907" as="sourcePoint" />
            <mxPoint x="2780.3338171262694" y="273.45910931174086" as="targetPoint" />
          </mxGeometry>
        </mxCell>
        <mxCell id="6IxY4aVY8u-sVjT7Nd2_-58" value="" style="endArrow=none;html=1;rounded=0;spacingBottom=-1;" parent="6IxY4aVY8u-sVjT7Nd2_-1" edge="1">
          <mxGeometry width="50" height="50" relative="1" as="geometry">
            <mxPoint x="2853.374455732946" y="752.3781376518218" as="sourcePoint" />
            <mxPoint x="2844.9927431059505" y="269.8032388663967" as="targetPoint" />
          </mxGeometry>
        </mxCell>
        <mxCell id="6IxY4aVY8u-sVjT7Nd2_-59" value="Electronics Enclosure" style="rounded=1;whiteSpace=wrap;html=1;strokeWidth=3;spacingBottom=-1;" parent="6IxY4aVY8u-sVjT7Nd2_-1" vertex="1">
          <mxGeometry x="2806.6763425253985" y="375.82348178137653" width="143.6865021770682" height="317.3295546558704" as="geometry" />
        </mxCell>
        <mxCell id="6IxY4aVY8u-sVjT7Nd2_-60" style="edgeStyle=orthogonalEdgeStyle;rounded=0;orthogonalLoop=1;jettySize=auto;html=1;exitX=0.75;exitY=1;exitDx=0;exitDy=0;entryX=0.5;entryY=0;entryDx=0;entryDy=0;fillColor=#a20025;strokeColor=#6F0000;strokeWidth=4;spacingBottom=-1;" parent="6IxY4aVY8u-sVjT7Nd2_-1" source="6IxY4aVY8u-sVjT7Nd2_-53" target="6IxY4aVY8u-sVjT7Nd2_-59" edge="1">
          <mxGeometry relative="1" as="geometry">
            <Array as="points">
              <mxPoint x="2877.3222060957905" y="269.0720647773279" />
              <mxPoint x="2877.3222060957905" y="323.178947368421" />
              <mxPoint x="2878.5195936139326" y="323.178947368421" />
            </Array>
          </mxGeometry>
        </mxCell>
        <mxCell id="6IxY4aVY8u-sVjT7Nd2_-61" value="ARR+" style="edgeLabel;html=1;align=center;verticalAlign=middle;resizable=0;points=[];spacingBottom=-1;" parent="6IxY4aVY8u-sVjT7Nd2_-60" vertex="1" connectable="0">
          <mxGeometry x="0.2245" y="1" relative="1" as="geometry">
            <mxPoint as="offset" />
          </mxGeometry>
        </mxCell>
        <mxCell id="6IxY4aVY8u-sVjT7Nd2_-62" style="edgeStyle=orthogonalEdgeStyle;rounded=0;orthogonalLoop=1;jettySize=auto;html=1;exitX=0.899;exitY=0.988;exitDx=0;exitDy=0;entryX=0.75;entryY=1;entryDx=0;entryDy=0;exitPerimeter=0;fillColor=#e3c800;strokeColor=#B09500;curved=1;strokeWidth=4;spacingBottom=-1;" parent="6IxY4aVY8u-sVjT7Nd2_-1" source="6IxY4aVY8u-sVjT7Nd2_-53" target="6IxY4aVY8u-sVjT7Nd2_-59" edge="1">
          <mxGeometry relative="1" as="geometry">
            <Array as="points">
              <mxPoint x="3024.6008708272857" y="267.6097165991902" />
              <mxPoint x="3024.6008708272857" y="323.178947368421" />
              <mxPoint x="3031.7851959361387" y="323.178947368421" />
              <mxPoint x="3031.7851959361387" y="722.4" />
              <mxPoint x="2914.4412191582" y="722.4" />
            </Array>
          </mxGeometry>
        </mxCell>
        <mxCell id="6IxY4aVY8u-sVjT7Nd2_-63" value="RTD x 3" style="edgeLabel;html=1;align=center;verticalAlign=middle;resizable=0;points=[];spacingBottom=-1;" parent="6IxY4aVY8u-sVjT7Nd2_-62" vertex="1" connectable="0">
          <mxGeometry x="0.7889" relative="1" as="geometry">
            <mxPoint as="offset" />
          </mxGeometry>
        </mxCell>
        <mxCell id="6IxY4aVY8u-sVjT7Nd2_-64" style="edgeStyle=orthogonalEdgeStyle;rounded=0;orthogonalLoop=1;jettySize=auto;html=1;exitX=0.75;exitY=0;exitDx=0;exitDy=0;entryX=0.75;entryY=0;entryDx=0;entryDy=0;fillColor=#a20025;strokeColor=#6F0000;curved=1;strokeWidth=4;spacingBottom=-1;" parent="6IxY4aVY8u-sVjT7Nd2_-1" source="6IxY4aVY8u-sVjT7Nd2_-54" target="6IxY4aVY8u-sVjT7Nd2_-59" edge="1">
          <mxGeometry relative="1" as="geometry">
            <Array as="points">
              <mxPoint x="2847.3875181422345" y="744.3352226720648" />
              <mxPoint x="3013.8243831640057" y="744.3352226720648" />
              <mxPoint x="3013.8243831640057" y="346.57651821862345" />
              <mxPoint x="2914.4412191582" y="346.57651821862345" />
            </Array>
          </mxGeometry>
        </mxCell>
        <mxCell id="6IxY4aVY8u-sVjT7Nd2_-65" value="ARR+" style="edgeLabel;html=1;align=center;verticalAlign=middle;resizable=0;points=[];spacingBottom=-1;" parent="6IxY4aVY8u-sVjT7Nd2_-64" vertex="1" connectable="0">
          <mxGeometry x="0.1298" y="-1" relative="1" as="geometry">
            <mxPoint as="offset" />
          </mxGeometry>
        </mxCell>
        <mxCell id="6IxY4aVY8u-sVjT7Nd2_-66" style="edgeStyle=orthogonalEdgeStyle;rounded=0;orthogonalLoop=1;jettySize=auto;html=1;entryX=0.5;entryY=1;entryDx=0;entryDy=0;fillColor=#e3c800;strokeColor=#B09500;strokeWidth=4;spacingBottom=-1;" parent="6IxY4aVY8u-sVjT7Nd2_-1" source="6IxY4aVY8u-sVjT7Nd2_-54" target="6IxY4aVY8u-sVjT7Nd2_-59" edge="1">
          <mxGeometry relative="1" as="geometry">
            <Array as="points">
              <mxPoint x="2880" y="725" />
              <mxPoint x="2879" y="725" />
            </Array>
          </mxGeometry>
        </mxCell>
        <mxCell id="6IxY4aVY8u-sVjT7Nd2_-67" value="RTD x 3" style="edgeLabel;html=1;align=center;verticalAlign=middle;resizable=0;points=[];spacingBottom=-1;" parent="6IxY4aVY8u-sVjT7Nd2_-66" vertex="1" connectable="0">
          <mxGeometry x="0.4128" relative="1" as="geometry">
            <mxPoint as="offset" />
          </mxGeometry>
        </mxCell>
        <mxCell id="6IxY4aVY8u-sVjT7Nd2_-70" style="edgeStyle=orthogonalEdgeStyle;rounded=0;orthogonalLoop=1;jettySize=auto;html=1;exitX=1;exitY=0.75;exitDx=0;exitDy=0;entryX=0.25;entryY=1;entryDx=0;entryDy=0;fillColor=#e3c800;strokeColor=#B09500;curved=1;spacingBottom=-1;strokeWidth=5;" parent="6IxY4aVY8u-sVjT7Nd2_-1" source="6IxY4aVY8u-sVjT7Nd2_-55" target="6IxY4aVY8u-sVjT7Nd2_-59" edge="1">
          <mxGeometry relative="1" as="geometry">
            <Array as="points">
              <mxPoint x="1854" y="687" />
              <mxPoint x="2360" y="687" />
              <mxPoint x="2360" y="720" />
              <mxPoint x="2843" y="720" />
            </Array>
          </mxGeometry>
        </mxCell>
        <mxCell id="6IxY4aVY8u-sVjT7Nd2_-71" value="RTD x 2" style="edgeLabel;html=1;align=center;verticalAlign=middle;resizable=0;points=[];spacingBottom=-1;" parent="6IxY4aVY8u-sVjT7Nd2_-70" vertex="1" connectable="0">
          <mxGeometry x="0.5582" y="2" relative="1" as="geometry">
            <mxPoint as="offset" />
          </mxGeometry>
        </mxCell>
        <mxCell id="6IxY4aVY8u-sVjT7Nd2_-72" value="Supplemental Enclosure" style="rounded=1;whiteSpace=wrap;html=1;strokeWidth=4;spacingBottom=-1;" parent="6IxY4aVY8u-sVjT7Nd2_-1" vertex="1">
          <mxGeometry x="2701.3062409288823" y="446.01619433198374" width="88.60667634252539" height="169.63238866396762" as="geometry" />
        </mxCell>
        <mxCell id="6IxY4aVY8u-sVjT7Nd2_-73" value="Controls Enclosure" style="rounded=1;whiteSpace=wrap;html=1;strokeWidth=4;spacingBottom=-1;" parent="6IxY4aVY8u-sVjT7Nd2_-1" vertex="1">
          <mxGeometry x="2385.1959361393324" y="543.9935222672063" width="91.00145137880986" height="84.81619433198381" as="geometry" />
        </mxCell>
        <mxCell id="6IxY4aVY8u-sVjT7Nd2_-74" style="edgeStyle=orthogonalEdgeStyle;rounded=0;orthogonalLoop=1;jettySize=auto;html=1;exitX=0;exitY=0.75;exitDx=0;exitDy=0;entryX=1;entryY=0.5;entryDx=0;entryDy=0;fillColor=#60a917;strokeColor=#2D7600;curved=1;strokeWidth=4;spacingBottom=-1;" parent="6IxY4aVY8u-sVjT7Nd2_-1" source="6IxY4aVY8u-sVjT7Nd2_-59" target="6IxY4aVY8u-sVjT7Nd2_-73" edge="1">
          <mxGeometry relative="1" as="geometry">
            <Array as="points">
              <mxPoint x="2803" y="614" />
              <mxPoint x="2803" y="635" />
              <mxPoint x="2510" y="635" />
              <mxPoint x="2510" y="586" />
            </Array>
          </mxGeometry>
        </mxCell>
        <mxCell id="6IxY4aVY8u-sVjT7Nd2_-75" value="CAR_CAN" style="edgeLabel;html=1;align=center;verticalAlign=middle;resizable=0;points=[];spacingBottom=-1;" parent="6IxY4aVY8u-sVjT7Nd2_-74" vertex="1" connectable="0">
          <mxGeometry x="0.4873" relative="1" as="geometry">
            <mxPoint x="119" y="-4" as="offset" />
          </mxGeometry>
        </mxCell>
        <mxCell id="6IxY4aVY8u-sVjT7Nd2_-76" style="edgeStyle=orthogonalEdgeStyle;rounded=0;orthogonalLoop=1;jettySize=auto;html=1;entryX=0.466;entryY=0.015;entryDx=0;entryDy=0;entryPerimeter=0;fillColor=#6a00ff;strokeColor=#3700CC;spacingBottom=-1;strokeWidth=4;" parent="6IxY4aVY8u-sVjT7Nd2_-1" source="6IxY4aVY8u-sVjT7Nd2_-78" target="6IxY4aVY8u-sVjT7Nd2_-73" edge="1">
          <mxGeometry relative="1" as="geometry" />
        </mxCell>
        <mxCell id="6IxY4aVY8u-sVjT7Nd2_-77" value="Switches" style="edgeLabel;html=1;align=center;verticalAlign=middle;resizable=0;points=[];spacingBottom=-1;" parent="6IxY4aVY8u-sVjT7Nd2_-76" vertex="1" connectable="0">
          <mxGeometry x="-0.2027" relative="1" as="geometry">
            <mxPoint as="offset" />
          </mxGeometry>
        </mxCell>
        <mxCell id="6IxY4aVY8u-sVjT7Nd2_-78" value="Controls Dashboard" style="rounded=1;whiteSpace=wrap;html=1;strokeWidth=4;spacingBottom=-1;" parent="6IxY4aVY8u-sVjT7Nd2_-1" vertex="1">
          <mxGeometry x="2385.1959361393324" y="393.37165991902833" width="91.00145137880986" height="84.81619433198381" as="geometry" />
        </mxCell>
        <mxCell id="6IxY4aVY8u-sVjT7Nd2_-79" value="MI Enclosure" style="rounded=1;whiteSpace=wrap;html=1;strokeWidth=3;spacingBottom=-1;" parent="6IxY4aVY8u-sVjT7Nd2_-1" vertex="1">
          <mxGeometry x="2728.846153846154" y="273.45910931174086" width="63.46153846153845" height="61.41862348178137" as="geometry" />
        </mxCell>
        <mxCell id="6IxY4aVY8u-sVjT7Nd2_-80" style="edgeStyle=orthogonalEdgeStyle;rounded=0;orthogonalLoop=1;jettySize=auto;html=1;exitX=1;exitY=0.25;exitDx=0;exitDy=0;entryX=0.5;entryY=1;entryDx=0;entryDy=0;fillColor=#60a917;strokeColor=#2D7600;curved=1;strokeWidth=4;spacingBottom=-1;" parent="6IxY4aVY8u-sVjT7Nd2_-1" source="6IxY4aVY8u-sVjT7Nd2_-73" target="6IxY4aVY8u-sVjT7Nd2_-79" edge="1">
          <mxGeometry relative="1" as="geometry">
            <Array as="points">
              <mxPoint x="2659.397677793904" y="565.9287449392713" />
              <mxPoint x="2659.397677793904" y="394.834008097166" />
              <mxPoint x="2761.175616835994" y="394.834008097166" />
            </Array>
          </mxGeometry>
        </mxCell>
        <mxCell id="6IxY4aVY8u-sVjT7Nd2_-81" value="Motor_CAN" style="edgeLabel;html=1;align=center;verticalAlign=middle;resizable=0;points=[];spacingBottom=-1;" parent="6IxY4aVY8u-sVjT7Nd2_-80" vertex="1" connectable="0">
          <mxGeometry x="-0.6542" y="2" relative="1" as="geometry">
            <mxPoint x="44" y="-14" as="offset" />
          </mxGeometry>
        </mxCell>
        <mxCell id="6IxY4aVY8u-sVjT7Nd2_-82" value="Controls Enclosure" style="rounded=1;whiteSpace=wrap;html=1;strokeWidth=4;spacingBottom=-1;" parent="6IxY4aVY8u-sVjT7Nd2_-1" vertex="1">
          <mxGeometry x="714.8403483309144" y="437.24210526315784" width="85.01451378809868" height="95.05263157894737" as="geometry" />
        </mxCell>
        <mxCell id="6IxY4aVY8u-sVjT7Nd2_-83" value="" style="endArrow=none;html=1;rounded=0;spacingBottom=-1;" parent="6IxY4aVY8u-sVjT7Nd2_-1" edge="1">
          <mxGeometry width="50" height="50" relative="1" as="geometry">
            <mxPoint x="1849.963715529753" y="1244.4582995951416" as="sourcePoint" />
            <mxPoint x="2193.613933236574" y="1242.9959514170039" as="targetPoint" />
          </mxGeometry>
        </mxCell>
        <mxCell id="6IxY4aVY8u-sVjT7Nd2_-84" value="" style="endArrow=none;html=1;rounded=0;spacingBottom=-1;" parent="6IxY4aVY8u-sVjT7Nd2_-1" edge="1">
          <mxGeometry width="50" height="50" relative="1" as="geometry">
            <mxPoint x="2192.416545718432" y="1242.9959514170039" as="sourcePoint" />
            <mxPoint x="2689.33236574746" y="1190.3514170040485" as="targetPoint" />
          </mxGeometry>
        </mxCell>
        <mxCell id="6IxY4aVY8u-sVjT7Nd2_-85" value="" style="endArrow=none;html=1;rounded=0;spacingBottom=-1;" parent="6IxY4aVY8u-sVjT7Nd2_-1" edge="1">
          <mxGeometry width="50" height="50" relative="1" as="geometry">
            <mxPoint x="2688.1349782293173" y="1190.3514170040485" as="sourcePoint" />
            <mxPoint x="3299.9999999999995" y="1180.114979757085" as="targetPoint" />
          </mxGeometry>
        </mxCell>
        <mxCell id="6IxY4aVY8u-sVjT7Nd2_-86" value="" style="endArrow=none;html=1;rounded=0;spacingBottom=-1;" parent="6IxY4aVY8u-sVjT7Nd2_-1" edge="1">
          <mxGeometry width="50" height="50" relative="1" as="geometry">
            <mxPoint x="1849.963715529753" y="1617.357085020243" as="sourcePoint" />
            <mxPoint x="1849.963715529753" y="1244.4582995951416" as="targetPoint" />
          </mxGeometry>
        </mxCell>
        <mxCell id="6IxY4aVY8u-sVjT7Nd2_-87" value="" style="endArrow=none;html=1;rounded=0;spacingBottom=-1;" parent="6IxY4aVY8u-sVjT7Nd2_-1" edge="1">
          <mxGeometry width="50" height="50" relative="1" as="geometry">
            <mxPoint x="1848.7663280116108" y="1617.357085020243" as="sourcePoint" />
            <mxPoint x="2192.416545718432" y="1611.5076923076922" as="targetPoint" />
          </mxGeometry>
        </mxCell>
        <mxCell id="6IxY4aVY8u-sVjT7Nd2_-88" value="" style="endArrow=none;html=1;rounded=0;spacingBottom=-1;" parent="6IxY4aVY8u-sVjT7Nd2_-1" edge="1">
          <mxGeometry width="50" height="50" relative="1" as="geometry">
            <mxPoint x="2700.1088534107403" y="1671.4639676113359" as="sourcePoint" />
            <mxPoint x="3294.0130624092885" y="1661.2275303643723" as="targetPoint" />
          </mxGeometry>
        </mxCell>
        <mxCell id="6IxY4aVY8u-sVjT7Nd2_-89" value="" style="endArrow=none;html=1;rounded=0;spacingBottom=-1;" parent="6IxY4aVY8u-sVjT7Nd2_-1" edge="1">
          <mxGeometry width="50" height="50" relative="1" as="geometry">
            <mxPoint x="3294.0130624092885" y="1659.7651821862348" as="sourcePoint" />
            <mxPoint x="3297.605224963715" y="1181.5773279352225" as="targetPoint" />
          </mxGeometry>
        </mxCell>
        <mxCell id="6IxY4aVY8u-sVjT7Nd2_-90" value="" style="endArrow=none;html=1;rounded=0;spacingBottom=-1;" parent="6IxY4aVY8u-sVjT7Nd2_-1" edge="1">
          <mxGeometry width="50" height="50" relative="1" as="geometry">
            <mxPoint x="2191.21915820029" y="1611.5076923076922" as="sourcePoint" />
            <mxPoint x="2704.898403483309" y="1671.4639676113359" as="targetPoint" />
          </mxGeometry>
        </mxCell>
        <mxCell id="6IxY4aVY8u-sVjT7Nd2_-91" value="" style="endArrow=none;html=1;rounded=0;spacingBottom=-1;" parent="6IxY4aVY8u-sVjT7Nd2_-1" edge="1">
          <mxGeometry width="50" height="50" relative="1" as="geometry">
            <mxPoint x="3098.838896952104" y="1664.1522267206476" as="sourcePoint" />
            <mxPoint x="3100.0362844702463" y="1184.502024291498" as="targetPoint" />
          </mxGeometry>
        </mxCell>
        <mxCell id="6IxY4aVY8u-sVjT7Nd2_-92" value="" style="endArrow=none;html=1;rounded=0;spacingBottom=-1;" parent="6IxY4aVY8u-sVjT7Nd2_-1" edge="1">
          <mxGeometry width="50" height="50" relative="1" as="geometry">
            <mxPoint x="3098.838896952104" y="1664.1522267206476" as="sourcePoint" />
            <mxPoint x="3296.407837445573" y="1181.5773279352225" as="targetPoint" />
          </mxGeometry>
        </mxCell>
        <mxCell id="6IxY4aVY8u-sVjT7Nd2_-93" value="" style="endArrow=none;html=1;rounded=0;spacingBottom=-1;" parent="6IxY4aVY8u-sVjT7Nd2_-1" edge="1">
          <mxGeometry width="50" height="50" relative="1" as="geometry">
            <mxPoint x="3294.0130624092885" y="1661.2275303643723" as="sourcePoint" />
            <mxPoint x="3101.2336719883883" y="1183.0396761133602" as="targetPoint" />
          </mxGeometry>
        </mxCell>
        <mxCell id="6IxY4aVY8u-sVjT7Nd2_-94" value="" style="endArrow=none;html=1;rounded=0;spacingBottom=-1;" parent="6IxY4aVY8u-sVjT7Nd2_-1" edge="1">
          <mxGeometry width="50" height="50" relative="1" as="geometry">
            <mxPoint x="2073.875181422351" y="1611.5076923076922" as="sourcePoint" />
            <mxPoint x="2073.875181422351" y="1245.9206477732794" as="targetPoint" />
          </mxGeometry>
        </mxCell>
        <mxCell id="6IxY4aVY8u-sVjT7Nd2_-95" value="" style="endArrow=none;html=1;rounded=0;spacingBottom=-1;" parent="6IxY4aVY8u-sVjT7Nd2_-1" edge="1">
          <mxGeometry width="50" height="50" relative="1" as="geometry">
            <mxPoint x="2125.362844702467" y="1608.582995951417" as="sourcePoint" />
            <mxPoint x="2125.362844702467" y="1242.9959514170039" as="targetPoint" />
          </mxGeometry>
        </mxCell>
        <mxCell id="6IxY4aVY8u-sVjT7Nd2_-96" value="" style="endArrow=none;html=1;rounded=0;spacingBottom=-1;" parent="6IxY4aVY8u-sVjT7Nd2_-1" edge="1">
          <mxGeometry width="50" height="50" relative="1" as="geometry">
            <mxPoint x="2191.21915820029" y="1608.582995951417" as="sourcePoint" />
            <mxPoint x="2191.21915820029" y="1242.9959514170039" as="targetPoint" />
          </mxGeometry>
        </mxCell>
        <mxCell id="6IxY4aVY8u-sVjT7Nd2_-97" value="" style="endArrow=none;html=1;rounded=0;spacingBottom=-1;" parent="6IxY4aVY8u-sVjT7Nd2_-1" edge="1">
          <mxGeometry width="50" height="50" relative="1" as="geometry">
            <mxPoint x="2387.590711175617" y="1289.7910931174088" as="sourcePoint" />
            <mxPoint x="2447.460087082728" y="1216.673684210526" as="targetPoint" />
          </mxGeometry>
        </mxCell>
        <mxCell id="6IxY4aVY8u-sVjT7Nd2_-98" value="" style="endArrow=none;html=1;rounded=0;spacingBottom=-1;" parent="6IxY4aVY8u-sVjT7Nd2_-1" edge="1">
          <mxGeometry width="50" height="50" relative="1" as="geometry">
            <mxPoint x="2447.460087082728" y="1639.2923076923075" as="sourcePoint" />
            <mxPoint x="2383.9985486211895" y="1570.5619433198378" as="targetPoint" />
          </mxGeometry>
        </mxCell>
        <mxCell id="6IxY4aVY8u-sVjT7Nd2_-99" value="" style="endArrow=none;html=1;rounded=0;spacingBottom=-1;" parent="6IxY4aVY8u-sVjT7Nd2_-1" edge="1">
          <mxGeometry width="50" height="50" relative="1" as="geometry">
            <mxPoint x="2383.9985486211895" y="1570.5619433198378" as="sourcePoint" />
            <mxPoint x="2388.788098693759" y="1288.3287449392712" as="targetPoint" />
          </mxGeometry>
        </mxCell>
        <mxCell id="6IxY4aVY8u-sVjT7Nd2_-100" value="Top View - 12V" style="text;html=1;strokeColor=none;fillColor=none;align=center;verticalAlign=middle;whiteSpace=wrap;rounded=0;spacingBottom=-1;" parent="6IxY4aVY8u-sVjT7Nd2_-1" vertex="1">
          <mxGeometry x="2592.3439767779387" y="994.3967611336031" width="75.43541364296081" height="43.87044534412955" as="geometry" />
        </mxCell>
        <mxCell id="6IxY4aVY8u-sVjT7Nd2_-101" value="Subarray A" style="rounded=1;whiteSpace=wrap;html=1;spacingBottom=-1;" parent="6IxY4aVY8u-sVjT7Nd2_-1" vertex="1">
          <mxGeometry x="2122.9680696661826" y="1049.965991902834" width="975.8708272859215" height="134.53603238866395" as="geometry" />
        </mxCell>
        <mxCell id="6IxY4aVY8u-sVjT7Nd2_-102" value="Subarray B" style="rounded=1;whiteSpace=wrap;html=1;spacingBottom=-1;" parent="6IxY4aVY8u-sVjT7Nd2_-1" vertex="1">
          <mxGeometry x="2091.8359941944846" y="1671.4639676113359" width="1007.0029027576196" height="134.53603238866395" as="geometry" />
        </mxCell>
        <mxCell id="6IxY4aVY8u-sVjT7Nd2_-103" value="Subarray C" style="rounded=1;whiteSpace=wrap;html=1;spacingBottom=-1;" parent="6IxY4aVY8u-sVjT7Nd2_-1" vertex="1">
          <mxGeometry x="1727.830188679245" y="1240.0712550607286" width="125.72568940493468" height="372.89878542510115" as="geometry" />
        </mxCell>
        <mxCell id="6IxY4aVY8u-sVjT7Nd2_-104" value="" style="endArrow=none;html=1;rounded=0;spacingBottom=-1;" parent="6IxY4aVY8u-sVjT7Nd2_-1" edge="1">
          <mxGeometry width="50" height="50" relative="1" as="geometry">
            <mxPoint x="2733.6357039187224" y="1671.4639676113359" as="sourcePoint" />
            <mxPoint x="2733.6357039187224" y="1193.276113360324" as="targetPoint" />
          </mxGeometry>
        </mxCell>
        <mxCell id="6IxY4aVY8u-sVjT7Nd2_-105" value="" style="endArrow=none;html=1;rounded=0;spacingBottom=-1;" parent="6IxY4aVY8u-sVjT7Nd2_-1" edge="1">
          <mxGeometry width="50" height="50" relative="1" as="geometry">
            <mxPoint x="2780.3338171262694" y="1668.5392712550606" as="sourcePoint" />
            <mxPoint x="2780.3338171262694" y="1188.8890688259107" as="targetPoint" />
          </mxGeometry>
        </mxCell>
        <mxCell id="6IxY4aVY8u-sVjT7Nd2_-106" value="" style="endArrow=none;html=1;rounded=0;spacingBottom=-1;" parent="6IxY4aVY8u-sVjT7Nd2_-1" edge="1">
          <mxGeometry width="50" height="50" relative="1" as="geometry">
            <mxPoint x="2853.374455732946" y="1667.808097165992" as="sourcePoint" />
            <mxPoint x="2844.9927431059505" y="1185.2331983805668" as="targetPoint" />
          </mxGeometry>
        </mxCell>
        <mxCell id="6IxY4aVY8u-sVjT7Nd2_-107" value="Electronics Enclosure" style="rounded=1;whiteSpace=wrap;html=1;spacingBottom=-1;" parent="6IxY4aVY8u-sVjT7Nd2_-1" vertex="1">
          <mxGeometry x="2806.6763425253985" y="1291.2534412955465" width="143.6865021770682" height="317.3295546558704" as="geometry" />
        </mxCell>
        <mxCell id="6IxY4aVY8u-sVjT7Nd2_-108" value="Supplemental Enclosure" style="rounded=1;whiteSpace=wrap;html=1;spacingBottom=-1;" parent="6IxY4aVY8u-sVjT7Nd2_-1" vertex="1">
          <mxGeometry x="2701.3062409288823" y="1361.4461538461537" width="88.60667634252539" height="169.63238866396762" as="geometry" />
        </mxCell>
        <mxCell id="6IxY4aVY8u-sVjT7Nd2_-109" value="Controls Enclosure" style="rounded=1;whiteSpace=wrap;html=1;spacingBottom=-1;" parent="6IxY4aVY8u-sVjT7Nd2_-1" vertex="1">
          <mxGeometry x="2385.1959361393324" y="1459.4234817813765" width="91.00145137880986" height="84.81619433198381" as="geometry" />
        </mxCell>
        <mxCell id="6IxY4aVY8u-sVjT7Nd2_-110" style="edgeStyle=orthogonalEdgeStyle;rounded=0;orthogonalLoop=1;jettySize=auto;html=1;entryX=0.941;entryY=1.002;entryDx=0;entryDy=0;entryPerimeter=0;curved=1;exitX=0.25;exitY=1;exitDx=0;exitDy=0;fillColor=#a20025;strokeColor=#6F0000;strokeWidth=4;spacingBottom=-1;" parent="6IxY4aVY8u-sVjT7Nd2_-1" source="6IxY4aVY8u-sVjT7Nd2_-107" target="6IxY4aVY8u-sVjT7Nd2_-109" edge="1">
          <mxGeometry relative="1" as="geometry" />
        </mxCell>
        <mxCell id="6IxY4aVY8u-sVjT7Nd2_-111" value="Controls Leader 12V x 2" style="edgeLabel;html=1;align=center;verticalAlign=middle;resizable=0;points=[];spacingBottom=-1;" parent="6IxY4aVY8u-sVjT7Nd2_-110" vertex="1" connectable="0">
          <mxGeometry x="-0.0195" y="-2" relative="1" as="geometry">
            <mxPoint x="-20" y="-3" as="offset" />
          </mxGeometry>
        </mxCell>
        <mxCell id="6IxY4aVY8u-sVjT7Nd2_-112" style="edgeStyle=orthogonalEdgeStyle;rounded=0;orthogonalLoop=1;jettySize=auto;html=1;exitX=0;exitY=0.75;exitDx=0;exitDy=0;entryX=1;entryY=0.835;entryDx=0;entryDy=0;entryPerimeter=0;curved=1;fillColor=#a20025;strokeColor=#6F0000;spacingBottom=-1;" parent="6IxY4aVY8u-sVjT7Nd2_-1" source="6IxY4aVY8u-sVjT7Nd2_-107" target="6IxY4aVY8u-sVjT7Nd2_-109" edge="1">
          <mxGeometry relative="1" as="geometry">
            <Array as="points">
              <mxPoint x="2806.6763425253985" y="1538.3902834008097" />
              <mxPoint x="2489.3686502177065" y="1538.3902834008097" />
              <mxPoint x="2489.3686502177065" y="1529.6161943319837" />
            </Array>
          </mxGeometry>
        </mxCell>
        <mxCell id="6IxY4aVY8u-sVjT7Nd2_-113" value="Controls Minion 12V" style="edgeLabel;html=1;align=center;verticalAlign=middle;resizable=0;points=[];spacingBottom=-1;" parent="6IxY4aVY8u-sVjT7Nd2_-112" vertex="1" connectable="0">
          <mxGeometry x="0.2479" relative="1" as="geometry">
            <mxPoint as="offset" />
          </mxGeometry>
        </mxCell>
        <mxCell id="6IxY4aVY8u-sVjT7Nd2_-114" value="Controls Switches" style="rounded=1;whiteSpace=wrap;html=1;spacingBottom=-1;" parent="6IxY4aVY8u-sVjT7Nd2_-1" vertex="1">
          <mxGeometry x="2385.1959361393324" y="1313.1886639676113" width="91.00145137880986" height="84.81619433198381" as="geometry" />
        </mxCell>
        <mxCell id="6IxY4aVY8u-sVjT7Nd2_-115" value="MI Enclosure" style="rounded=1;whiteSpace=wrap;html=1;spacingBottom=-1;" parent="6IxY4aVY8u-sVjT7Nd2_-1" vertex="1">
          <mxGeometry x="2728.846153846154" y="1188.8890688259107" width="63.46153846153845" height="61.41862348178137" as="geometry" />
        </mxCell>
        <mxCell id="6IxY4aVY8u-sVjT7Nd2_-116" value="Display" style="rounded=1;whiteSpace=wrap;html=1;rotation=-45;spacingBottom=-1;" parent="6IxY4aVY8u-sVjT7Nd2_-1" vertex="1">
          <mxGeometry x="2382.250362844702" y="1247.1051497975707" width="88.00798258345428" height="27.784615384615385" as="geometry" />
        </mxCell>
        <mxCell id="6IxY4aVY8u-sVjT7Nd2_-117" value="Back Camera" style="rounded=1;whiteSpace=wrap;html=1;rotation=-5;spacingBottom=-1;" parent="6IxY4aVY8u-sVjT7Nd2_-1" vertex="1">
          <mxGeometry x="2495.7507256894046" y="1205.691449392712" width="88.00798258345428" height="38.75222672064777" as="geometry" />
        </mxCell>
        <mxCell id="6IxY4aVY8u-sVjT7Nd2_-118" style="edgeStyle=orthogonalEdgeStyle;rounded=0;orthogonalLoop=1;jettySize=auto;html=1;exitX=0;exitY=0.25;exitDx=0;exitDy=0;entryX=1;entryY=1;entryDx=0;entryDy=0;fillColor=#a20025;strokeColor=#6F0000;curved=1;spacingBottom=-1;" parent="6IxY4aVY8u-sVjT7Nd2_-1" source="6IxY4aVY8u-sVjT7Nd2_-107" target="6IxY4aVY8u-sVjT7Nd2_-117" edge="1">
          <mxGeometry relative="1" as="geometry">
            <Array as="points">
              <mxPoint x="2806.6763425253985" y="1336.5862348178136" />
              <mxPoint x="2764.7677793904204" y="1336.5862348178136" />
              <mxPoint x="2764.7677793904204" y="1282.4793522267205" />
              <mxPoint x="2585.159651669085" y="1282.4793522267205" />
            </Array>
          </mxGeometry>
        </mxCell>
        <mxCell id="6IxY4aVY8u-sVjT7Nd2_-119" value="Camera 12V" style="edgeLabel;html=1;align=center;verticalAlign=middle;resizable=0;points=[];spacingBottom=-1;" parent="6IxY4aVY8u-sVjT7Nd2_-118" vertex="1" connectable="0">
          <mxGeometry x="0.4721" y="-1" relative="1" as="geometry">
            <mxPoint x="32" y="2" as="offset" />
          </mxGeometry>
        </mxCell>
        <mxCell id="6IxY4aVY8u-sVjT7Nd2_-120" value="Horn" style="rounded=1;whiteSpace=wrap;html=1;spacingBottom=-1;" parent="6IxY4aVY8u-sVjT7Nd2_-1" vertex="1">
          <mxGeometry x="2385.1959361393324" y="1412.6283400809716" width="67.05370101596516" height="27.784615384615385" as="geometry" />
        </mxCell>
        <mxCell id="6IxY4aVY8u-sVjT7Nd2_-121" style="edgeStyle=orthogonalEdgeStyle;rounded=0;orthogonalLoop=1;jettySize=auto;html=1;exitX=0;exitY=0.5;exitDx=0;exitDy=0;entryX=1;entryY=0.5;entryDx=0;entryDy=0;curved=1;fillColor=#a20025;strokeColor=#6F0000;spacingBottom=-1;" parent="6IxY4aVY8u-sVjT7Nd2_-1" source="6IxY4aVY8u-sVjT7Nd2_-107" target="6IxY4aVY8u-sVjT7Nd2_-120" edge="1">
          <mxGeometry relative="1" as="geometry">
            <Array as="points">
              <mxPoint x="2806.6763425253985" y="1338.0485829959512" />
              <mxPoint x="2639.042089985486" y="1338.0485829959512" />
              <mxPoint x="2639.042089985486" y="1405.3165991902833" />
              <mxPoint x="2473.802612481857" y="1405.3165991902833" />
              <mxPoint x="2473.802612481857" y="1427.2518218623482" />
            </Array>
          </mxGeometry>
        </mxCell>
        <mxCell id="6IxY4aVY8u-sVjT7Nd2_-123" value="Display" style="rounded=1;whiteSpace=wrap;html=1;rotation=-45;strokeWidth=3;spacingBottom=-1;" parent="6IxY4aVY8u-sVjT7Nd2_-1" vertex="1">
          <mxGeometry x="2378.0116110304784" y="333.88333603238823" width="88.00798258345428" height="27.784615384615385" as="geometry" />
        </mxCell>
        <mxCell id="6IxY4aVY8u-sVjT7Nd2_-124" style="edgeStyle=orthogonalEdgeStyle;rounded=0;orthogonalLoop=1;jettySize=auto;html=1;exitX=0.75;exitY=0;exitDx=0;exitDy=0;entryX=0.574;entryY=0.981;entryDx=0;entryDy=0;entryPerimeter=0;fillColor=#fa6800;strokeColor=#C73500;strokeWidth=4;spacingBottom=-1;" parent="6IxY4aVY8u-sVjT7Nd2_-1" source="6IxY4aVY8u-sVjT7Nd2_-73" target="6IxY4aVY8u-sVjT7Nd2_-123" edge="1">
          <mxGeometry relative="1" as="geometry">
            <Array as="points">
              <mxPoint x="2510" y="544" />
              <mxPoint x="2510" y="353" />
            </Array>
          </mxGeometry>
        </mxCell>
        <mxCell id="6IxY4aVY8u-sVjT7Nd2_-125" value="Display &lt;br&gt;UART" style="edgeLabel;html=1;align=center;verticalAlign=middle;resizable=0;points=[];spacingBottom=-1;" parent="6IxY4aVY8u-sVjT7Nd2_-124" vertex="1" connectable="0">
          <mxGeometry x="0.1829" y="-2" relative="1" as="geometry">
            <mxPoint x="7" y="38" as="offset" />
          </mxGeometry>
        </mxCell>
        <mxCell id="6IxY4aVY8u-sVjT7Nd2_-126" value="Back Camera" style="rounded=1;whiteSpace=wrap;html=1;rotation=-5;strokeWidth=3;spacingBottom=-1;" parent="6IxY4aVY8u-sVjT7Nd2_-1" vertex="1">
          <mxGeometry x="2491.511973875181" y="292.46963562753035" width="88.00798258345428" height="38.75222672064777" as="geometry" />
        </mxCell>
        <mxCell id="6IxY4aVY8u-sVjT7Nd2_-127" style="edgeStyle=orthogonalEdgeStyle;rounded=0;orthogonalLoop=1;jettySize=auto;html=1;entryX=0.25;entryY=1;entryDx=0;entryDy=0;curved=1;fillColor=#fa6800;strokeColor=#C73500;strokeWidth=4;spacingBottom=-1;" parent="6IxY4aVY8u-sVjT7Nd2_-1" source="6IxY4aVY8u-sVjT7Nd2_-128" target="6IxY4aVY8u-sVjT7Nd2_-82" edge="1">
          <mxGeometry relative="1" as="geometry">
            <Array as="points">
              <mxPoint x="720" y="681" />
              <mxPoint x="736" y="681" />
            </Array>
          </mxGeometry>
        </mxCell>
        <mxCell id="6IxY4aVY8u-sVjT7Nd2_-128" value="Pedals" style="rounded=1;whiteSpace=wrap;html=1;spacingBottom=-1;" parent="6IxY4aVY8u-sVjT7Nd2_-1" vertex="1">
          <mxGeometry x="642.9970972423802" y="830.6137651821862" width="93.39622641509432" height="52.644534412955466" as="geometry" />
        </mxCell>
        <mxCell id="6IxY4aVY8u-sVjT7Nd2_-129" value="Fault Light" style="rounded=1;whiteSpace=wrap;html=1;strokeWidth=4;spacingBottom=-1;" parent="6IxY4aVY8u-sVjT7Nd2_-1" vertex="1">
          <mxGeometry x="925.5805515239476" width="80.22496371552975" height="87.7408906882591" as="geometry" />
        </mxCell>
        <mxCell id="6IxY4aVY8u-sVjT7Nd2_-130" style="edgeStyle=orthogonalEdgeStyle;rounded=0;orthogonalLoop=1;jettySize=auto;html=1;entryX=0.391;entryY=0.974;entryDx=0;entryDy=0;entryPerimeter=0;curved=1;fillColor=#e51400;strokeColor=#B20000;strokeWidth=4;spacingBottom=-1;" parent="6IxY4aVY8u-sVjT7Nd2_-1" source="6IxY4aVY8u-sVjT7Nd2_-34" target="6IxY4aVY8u-sVjT7Nd2_-129" edge="1">
          <mxGeometry relative="1" as="geometry" />
        </mxCell>
        <mxCell id="6IxY4aVY8u-sVjT7Nd2_-131" value="" style="endArrow=none;html=1;rounded=0;spacingBottom=-1;" parent="6IxY4aVY8u-sVjT7Nd2_-1" edge="1">
          <mxGeometry width="50" height="50" relative="1" as="geometry">
            <mxPoint x="1849.963715529753" y="1244.4582995951416" as="sourcePoint" />
            <mxPoint x="2193.613933236574" y="1242.9959514170039" as="targetPoint" />
          </mxGeometry>
        </mxCell>
        <mxCell id="6IxY4aVY8u-sVjT7Nd2_-132" value="Subarray C" style="rounded=1;whiteSpace=wrap;html=1;spacingBottom=-1;" parent="6IxY4aVY8u-sVjT7Nd2_-1" vertex="1">
          <mxGeometry x="1727.830188679245" y="1240.0712550607286" width="125.72568940493468" height="372.89878542510115" as="geometry" />
        </mxCell>
        <mxCell id="6IxY4aVY8u-sVjT7Nd2_-133" value="" style="endArrow=none;html=1;rounded=0;spacingBottom=-1;" parent="6IxY4aVY8u-sVjT7Nd2_-1" edge="1">
          <mxGeometry width="50" height="50" relative="1" as="geometry">
            <mxPoint x="2073.875181422351" y="1611.5076923076922" as="sourcePoint" />
            <mxPoint x="2073.875181422351" y="1245.9206477732794" as="targetPoint" />
          </mxGeometry>
        </mxCell>
        <mxCell id="6IxY4aVY8u-sVjT7Nd2_-134" value="" style="endArrow=none;html=1;rounded=0;spacingBottom=-1;" parent="6IxY4aVY8u-sVjT7Nd2_-1" edge="1">
          <mxGeometry width="50" height="50" relative="1" as="geometry">
            <mxPoint x="2125.362844702467" y="1608.582995951417" as="sourcePoint" />
            <mxPoint x="2125.362844702467" y="1242.9959514170039" as="targetPoint" />
          </mxGeometry>
        </mxCell>
        <mxCell id="6IxY4aVY8u-sVjT7Nd2_-135" value="" style="endArrow=none;html=1;rounded=0;spacingBottom=-1;" parent="6IxY4aVY8u-sVjT7Nd2_-1" edge="1">
          <mxGeometry width="50" height="50" relative="1" as="geometry">
            <mxPoint x="2191.21915820029" y="1608.582995951417" as="sourcePoint" />
            <mxPoint x="2191.21915820029" y="1242.9959514170039" as="targetPoint" />
          </mxGeometry>
        </mxCell>
        <mxCell id="6IxY4aVY8u-sVjT7Nd2_-136" value="" style="endArrow=none;html=1;rounded=0;spacingBottom=-1;" parent="6IxY4aVY8u-sVjT7Nd2_-1" edge="1">
          <mxGeometry width="50" height="50" relative="1" as="geometry">
            <mxPoint x="2191.21915820029" y="1611.5076923076922" as="sourcePoint" />
            <mxPoint x="2704.898403483309" y="1671.4639676113359" as="targetPoint" />
          </mxGeometry>
        </mxCell>
        <mxCell id="6IxY4aVY8u-sVjT7Nd2_-137" value="" style="endArrow=none;html=1;rounded=0;spacingBottom=-1;" parent="6IxY4aVY8u-sVjT7Nd2_-1" edge="1">
          <mxGeometry width="50" height="50" relative="1" as="geometry">
            <mxPoint x="1848.7663280116108" y="1617.357085020243" as="sourcePoint" />
            <mxPoint x="2192.416545718432" y="1611.5076923076922" as="targetPoint" />
          </mxGeometry>
        </mxCell>
        <mxCell id="6IxY4aVY8u-sVjT7Nd2_-138" value="" style="endArrow=none;html=1;rounded=0;spacingBottom=-1;" parent="6IxY4aVY8u-sVjT7Nd2_-1" edge="1">
          <mxGeometry width="50" height="50" relative="1" as="geometry">
            <mxPoint x="2192.416545718432" y="1242.9959514170039" as="sourcePoint" />
            <mxPoint x="2689.33236574746" y="1190.3514170040485" as="targetPoint" />
          </mxGeometry>
        </mxCell>
        <mxCell id="6IxY4aVY8u-sVjT7Nd2_-139" value="" style="endArrow=none;html=1;rounded=0;spacingBottom=-1;" parent="6IxY4aVY8u-sVjT7Nd2_-1" edge="1">
          <mxGeometry width="50" height="50" relative="1" as="geometry">
            <mxPoint x="3294.0130624092885" y="1661.2275303643723" as="sourcePoint" />
            <mxPoint x="3101.2336719883883" y="1183.0396761133602" as="targetPoint" />
          </mxGeometry>
        </mxCell>
        <mxCell id="6IxY4aVY8u-sVjT7Nd2_-140" value="" style="endArrow=none;html=1;rounded=0;spacingBottom=-1;" parent="6IxY4aVY8u-sVjT7Nd2_-1" edge="1">
          <mxGeometry width="50" height="50" relative="1" as="geometry">
            <mxPoint x="3098.838896952104" y="1664.1522267206476" as="sourcePoint" />
            <mxPoint x="3100.0362844702463" y="1184.502024291498" as="targetPoint" />
          </mxGeometry>
        </mxCell>
        <mxCell id="6IxY4aVY8u-sVjT7Nd2_-141" value="" style="endArrow=none;html=1;rounded=0;strokeWidth=4;spacingBottom=-1;" parent="6IxY4aVY8u-sVjT7Nd2_-1" edge="1">
          <mxGeometry width="50" height="50" relative="1" as="geometry">
            <mxPoint x="3098.838896952104" y="1664.1522267206476" as="sourcePoint" />
            <mxPoint x="3296.407837445573" y="1181.5773279352225" as="targetPoint" />
          </mxGeometry>
        </mxCell>
        <mxCell id="6IxY4aVY8u-sVjT7Nd2_-142" value="" style="endArrow=none;html=1;rounded=0;strokeWidth=4;spacingBottom=-1;" parent="6IxY4aVY8u-sVjT7Nd2_-1" edge="1">
          <mxGeometry width="50" height="50" relative="1" as="geometry">
            <mxPoint x="2688.1349782293173" y="1190.3514170040485" as="sourcePoint" />
            <mxPoint x="3299.9999999999995" y="1180.114979757085" as="targetPoint" />
          </mxGeometry>
        </mxCell>
        <mxCell id="6IxY4aVY8u-sVjT7Nd2_-143" value="" style="endArrow=none;html=1;rounded=0;strokeWidth=4;spacingBottom=-1;" parent="6IxY4aVY8u-sVjT7Nd2_-1" edge="1">
          <mxGeometry width="50" height="50" relative="1" as="geometry">
            <mxPoint x="3294.0130624092885" y="1659.7651821862348" as="sourcePoint" />
            <mxPoint x="3297.605224963715" y="1181.5773279352225" as="targetPoint" />
          </mxGeometry>
        </mxCell>
        <mxCell id="6IxY4aVY8u-sVjT7Nd2_-144" value="" style="endArrow=none;html=1;rounded=0;strokeWidth=4;spacingBottom=-1;" parent="6IxY4aVY8u-sVjT7Nd2_-1" edge="1">
          <mxGeometry width="50" height="50" relative="1" as="geometry">
            <mxPoint x="2700.1088534107403" y="1671.4639676113359" as="sourcePoint" />
            <mxPoint x="3294.0130624092885" y="1661.2275303643723" as="targetPoint" />
          </mxGeometry>
        </mxCell>
        <mxCell id="6IxY4aVY8u-sVjT7Nd2_-145" value="&lt;font style=&quot;font-size: 16px;&quot;&gt;Subarray B&lt;/font&gt;" style="rounded=1;whiteSpace=wrap;html=1;strokeWidth=4;spacingBottom=-1;" parent="6IxY4aVY8u-sVjT7Nd2_-1" vertex="1">
          <mxGeometry x="2091.8359941944846" y="1671.4639676113359" width="1007.0029027576196" height="134.53603238866395" as="geometry" />
        </mxCell>
        <mxCell id="6IxY4aVY8u-sVjT7Nd2_-146" value="Electronics Enclosure" style="rounded=1;whiteSpace=wrap;html=1;spacingBottom=-1;" parent="6IxY4aVY8u-sVjT7Nd2_-1" vertex="1">
          <mxGeometry x="2806.6763425253985" y="1291.2534412955465" width="143.6865021770682" height="317.3295546558704" as="geometry" />
        </mxCell>
        <mxCell id="6IxY4aVY8u-sVjT7Nd2_-147" value="Supplemental Enclosure" style="rounded=1;whiteSpace=wrap;html=1;spacingBottom=-1;" parent="6IxY4aVY8u-sVjT7Nd2_-1" vertex="1">
          <mxGeometry x="2701.3062409288823" y="1361.4461538461537" width="88.60667634252539" height="169.63238866396762" as="geometry" />
        </mxCell>
        <mxCell id="6IxY4aVY8u-sVjT7Nd2_-148" value="&lt;font style=&quot;font-size: 16px;&quot;&gt;Subarray A&lt;/font&gt;" style="rounded=1;whiteSpace=wrap;html=1;strokeWidth=4;spacingBottom=-1;" parent="6IxY4aVY8u-sVjT7Nd2_-1" vertex="1">
          <mxGeometry x="2122.9680696661826" y="1049.965991902834" width="975.8708272859215" height="134.53603238866395" as="geometry" />
        </mxCell>
        <mxCell id="6IxY4aVY8u-sVjT7Nd2_-149" value="&lt;font style=&quot;font-size: 10px;&quot;&gt;MI Enclosure&lt;/font&gt;" style="rounded=1;whiteSpace=wrap;html=1;strokeWidth=2;spacingBottom=-1;" parent="6IxY4aVY8u-sVjT7Nd2_-1" vertex="1">
          <mxGeometry x="2728.846153846154" y="1199.1255060728743" width="63.46153846153845" height="61.41862348178137" as="geometry" />
        </mxCell>
        <mxCell id="6IxY4aVY8u-sVjT7Nd2_-150" value="Controls Enclosure" style="rounded=1;whiteSpace=wrap;html=1;spacingBottom=-1;" parent="6IxY4aVY8u-sVjT7Nd2_-1" vertex="1">
          <mxGeometry x="2385.1959361393324" y="1459.4234817813765" width="91.00145137880986" height="84.81619433198381" as="geometry" />
        </mxCell>
        <mxCell id="6IxY4aVY8u-sVjT7Nd2_-151" value="Horn" style="rounded=1;whiteSpace=wrap;html=1;spacingBottom=-1;" parent="6IxY4aVY8u-sVjT7Nd2_-1" vertex="1">
          <mxGeometry x="2385.1959361393324" y="1412.6283400809716" width="67.05370101596516" height="27.784615384615385" as="geometry" />
        </mxCell>
        <mxCell id="6IxY4aVY8u-sVjT7Nd2_-152" value="Controls Switches" style="rounded=1;whiteSpace=wrap;html=1;spacingBottom=-1;" parent="6IxY4aVY8u-sVjT7Nd2_-1" vertex="1">
          <mxGeometry x="2385.1959361393324" y="1313.1886639676113" width="91.00145137880986" height="84.81619433198381" as="geometry" />
        </mxCell>
        <mxCell id="6IxY4aVY8u-sVjT7Nd2_-153" value="" style="endArrow=none;html=1;rounded=0;spacingBottom=-1;" parent="6IxY4aVY8u-sVjT7Nd2_-1" edge="1">
          <mxGeometry width="50" height="50" relative="1" as="geometry">
            <mxPoint x="2383.9985486211895" y="1570.5619433198378" as="sourcePoint" />
            <mxPoint x="2388.788098693759" y="1288.3287449392712" as="targetPoint" />
          </mxGeometry>
        </mxCell>
        <mxCell id="6IxY4aVY8u-sVjT7Nd2_-154" value="" style="endArrow=none;html=1;rounded=0;spacingBottom=-1;" parent="6IxY4aVY8u-sVjT7Nd2_-1" edge="1">
          <mxGeometry width="50" height="50" relative="1" as="geometry">
            <mxPoint x="2447.460087082728" y="1639.2923076923075" as="sourcePoint" />
            <mxPoint x="2383.9985486211895" y="1570.5619433198378" as="targetPoint" />
          </mxGeometry>
        </mxCell>
        <mxCell id="6IxY4aVY8u-sVjT7Nd2_-155" value="Display" style="rounded=1;whiteSpace=wrap;html=1;rotation=-45;spacingBottom=-1;" parent="6IxY4aVY8u-sVjT7Nd2_-1" vertex="1">
          <mxGeometry x="2382.250362844702" y="1247.1051497975707" width="88.00798258345428" height="27.784615384615385" as="geometry" />
        </mxCell>
        <mxCell id="6IxY4aVY8u-sVjT7Nd2_-156" value="Back Camera" style="rounded=1;whiteSpace=wrap;html=1;rotation=-5;spacingBottom=-1;" parent="6IxY4aVY8u-sVjT7Nd2_-1" vertex="1">
          <mxGeometry x="2495.7507256894046" y="1205.691449392712" width="88.00798258345428" height="38.75222672064777" as="geometry" />
        </mxCell>
        <mxCell id="6IxY4aVY8u-sVjT7Nd2_-157" value="" style="endArrow=none;html=1;rounded=0;strokeWidth=4;spacingBottom=-1;" parent="6IxY4aVY8u-sVjT7Nd2_-1" edge="1">
          <mxGeometry width="50" height="50" relative="1" as="geometry">
            <mxPoint x="1849.963715529753" y="1244.4582995951416" as="sourcePoint" />
            <mxPoint x="2193.613933236574" y="1242.9959514170039" as="targetPoint" />
          </mxGeometry>
        </mxCell>
        <mxCell id="6IxY4aVY8u-sVjT7Nd2_-158" value="Subarray C" style="rounded=1;whiteSpace=wrap;html=1;strokeWidth=4;spacingBottom=-1;" parent="6IxY4aVY8u-sVjT7Nd2_-1" vertex="1">
          <mxGeometry x="1727.830188679245" y="1240.0712550607286" width="125.72568940493468" height="372.89878542510115" as="geometry" />
        </mxCell>
        <mxCell id="6IxY4aVY8u-sVjT7Nd2_-159" value="" style="endArrow=none;html=1;rounded=0;strokeWidth=4;spacingBottom=-1;" parent="6IxY4aVY8u-sVjT7Nd2_-1" edge="1">
          <mxGeometry width="50" height="50" relative="1" as="geometry">
            <mxPoint x="2073.875181422351" y="1611.5076923076922" as="sourcePoint" />
            <mxPoint x="2073.875181422351" y="1245.9206477732794" as="targetPoint" />
          </mxGeometry>
        </mxCell>
        <mxCell id="6IxY4aVY8u-sVjT7Nd2_-160" value="" style="endArrow=none;html=1;rounded=0;strokeWidth=4;spacingBottom=-1;" parent="6IxY4aVY8u-sVjT7Nd2_-1" edge="1">
          <mxGeometry width="50" height="50" relative="1" as="geometry">
            <mxPoint x="2125.362844702467" y="1608.582995951417" as="sourcePoint" />
            <mxPoint x="2125.362844702467" y="1242.9959514170039" as="targetPoint" />
          </mxGeometry>
        </mxCell>
        <mxCell id="6IxY4aVY8u-sVjT7Nd2_-161" value="" style="endArrow=none;html=1;rounded=0;strokeWidth=4;spacingBottom=-1;" parent="6IxY4aVY8u-sVjT7Nd2_-1" edge="1">
          <mxGeometry width="50" height="50" relative="1" as="geometry">
            <mxPoint x="2191.21915820029" y="1608.582995951417" as="sourcePoint" />
            <mxPoint x="2191.21915820029" y="1242.9959514170039" as="targetPoint" />
          </mxGeometry>
        </mxCell>
        <mxCell id="6IxY4aVY8u-sVjT7Nd2_-162" value="" style="endArrow=none;html=1;rounded=0;strokeWidth=4;spacingBottom=-1;" parent="6IxY4aVY8u-sVjT7Nd2_-1" edge="1">
          <mxGeometry width="50" height="50" relative="1" as="geometry">
            <mxPoint x="1848.7663280116108" y="1617.357085020243" as="sourcePoint" />
            <mxPoint x="2192.416545718432" y="1611.5076923076922" as="targetPoint" />
          </mxGeometry>
        </mxCell>
        <mxCell id="6IxY4aVY8u-sVjT7Nd2_-163" value="" style="endArrow=none;html=1;rounded=0;strokeWidth=4;spacingBottom=-1;" parent="6IxY4aVY8u-sVjT7Nd2_-1" edge="1">
          <mxGeometry width="50" height="50" relative="1" as="geometry">
            <mxPoint x="2191.21915820029" y="1611.5076923076922" as="sourcePoint" />
            <mxPoint x="2704.898403483309" y="1671.4639676113359" as="targetPoint" />
          </mxGeometry>
        </mxCell>
        <mxCell id="6IxY4aVY8u-sVjT7Nd2_-164" value="" style="endArrow=none;html=1;rounded=0;strokeWidth=4;spacingBottom=-1;" parent="6IxY4aVY8u-sVjT7Nd2_-1" edge="1">
          <mxGeometry width="50" height="50" relative="1" as="geometry">
            <mxPoint x="2192.416545718432" y="1242.9959514170039" as="sourcePoint" />
            <mxPoint x="2689.33236574746" y="1190.3514170040485" as="targetPoint" />
          </mxGeometry>
        </mxCell>
        <mxCell id="6IxY4aVY8u-sVjT7Nd2_-165" value="" style="endArrow=none;html=1;rounded=0;strokeWidth=4;spacingBottom=-1;" parent="6IxY4aVY8u-sVjT7Nd2_-1" edge="1">
          <mxGeometry width="50" height="50" relative="1" as="geometry">
            <mxPoint x="2780.3338171262694" y="1668.5392712550606" as="sourcePoint" />
            <mxPoint x="2780.3338171262694" y="1188.8890688259107" as="targetPoint" />
          </mxGeometry>
        </mxCell>
        <mxCell id="6IxY4aVY8u-sVjT7Nd2_-166" value="" style="endArrow=none;html=1;rounded=0;strokeWidth=4;spacingBottom=-1;" parent="6IxY4aVY8u-sVjT7Nd2_-1" edge="1">
          <mxGeometry width="50" height="50" relative="1" as="geometry">
            <mxPoint x="2733.6357039187224" y="1671.4639676113359" as="sourcePoint" />
            <mxPoint x="2733.6357039187224" y="1193.276113360324" as="targetPoint" />
          </mxGeometry>
        </mxCell>
        <mxCell id="6IxY4aVY8u-sVjT7Nd2_-167" style="edgeStyle=orthogonalEdgeStyle;rounded=0;orthogonalLoop=1;jettySize=auto;html=1;exitX=0;exitY=0.25;exitDx=0;exitDy=0;entryX=1;entryY=1;entryDx=0;entryDy=0;fillColor=#a20025;strokeColor=#6F0000;curved=1;strokeWidth=4;spacingBottom=-1;" parent="6IxY4aVY8u-sVjT7Nd2_-1" edge="1">
          <mxGeometry relative="1" as="geometry">
            <Array as="points">
              <mxPoint x="2806.6763425253985" y="1336.5862348178136" />
              <mxPoint x="2764.7677793904204" y="1336.5862348178136" />
              <mxPoint x="2764.7677793904204" y="1282.4793522267205" />
              <mxPoint x="2585.159651669085" y="1282.4793522267205" />
            </Array>
            <mxPoint x="2806.6763425253985" y="1370.2202429149797" as="sourcePoint" />
            <mxPoint x="2585.159651669085" y="1240.0712550607286" as="targetPoint" />
          </mxGeometry>
        </mxCell>
        <mxCell id="6IxY4aVY8u-sVjT7Nd2_-168" value="Camera 12V" style="edgeLabel;html=1;align=center;verticalAlign=middle;resizable=0;points=[];spacingBottom=-1;" parent="6IxY4aVY8u-sVjT7Nd2_-167" vertex="1" connectable="0">
          <mxGeometry x="0.4721" y="-1" relative="1" as="geometry">
            <mxPoint x="32" y="2" as="offset" />
          </mxGeometry>
        </mxCell>
        <mxCell id="6IxY4aVY8u-sVjT7Nd2_-169" style="edgeStyle=orthogonalEdgeStyle;rounded=0;orthogonalLoop=1;jettySize=auto;html=1;exitX=0;exitY=0.5;exitDx=0;exitDy=0;entryX=1;entryY=0.5;entryDx=0;entryDy=0;curved=1;fillColor=#a20025;strokeColor=#6F0000;strokeWidth=4;spacingBottom=-1;" parent="6IxY4aVY8u-sVjT7Nd2_-1" edge="1">
          <mxGeometry relative="1" as="geometry">
            <Array as="points">
              <mxPoint x="2806.6763425253985" y="1338.0485829959512" />
              <mxPoint x="2639.042089985486" y="1338.0485829959512" />
              <mxPoint x="2639.042089985486" y="1405.3165991902833" />
              <mxPoint x="2473.802612481857" y="1405.3165991902833" />
              <mxPoint x="2473.802612481857" y="1427.2518218623482" />
            </Array>
            <mxPoint x="2806.6763425253985" y="1450.6493927125507" as="sourcePoint" />
            <mxPoint x="2452.249637155297" y="1427.2518218623482" as="targetPoint" />
          </mxGeometry>
        </mxCell>
        <mxCell id="6IxY4aVY8u-sVjT7Nd2_-170" value="Horn 12V" style="edgeLabel;html=1;align=center;verticalAlign=middle;resizable=0;points=[];spacingBottom=-1;" parent="6IxY4aVY8u-sVjT7Nd2_-169" vertex="1" connectable="0">
          <mxGeometry x="0.4315" y="1" relative="1" as="geometry">
            <mxPoint x="-38" as="offset" />
          </mxGeometry>
        </mxCell>
        <mxCell id="6IxY4aVY8u-sVjT7Nd2_-171" style="edgeStyle=orthogonalEdgeStyle;rounded=0;orthogonalLoop=1;jettySize=auto;html=1;exitX=0;exitY=0.75;exitDx=0;exitDy=0;entryX=1;entryY=0.835;entryDx=0;entryDy=0;entryPerimeter=0;curved=1;fillColor=#a20025;strokeColor=#6F0000;strokeWidth=4;spacingBottom=-1;" parent="6IxY4aVY8u-sVjT7Nd2_-1" edge="1">
          <mxGeometry relative="1" as="geometry">
            <Array as="points">
              <mxPoint x="2806.6763425253985" y="1538.3902834008097" />
              <mxPoint x="2489.3686502177065" y="1538.3902834008097" />
              <mxPoint x="2489.3686502177065" y="1529.6161943319837" />
            </Array>
            <mxPoint x="2806.6763425253985" y="1529.6161943319837" as="sourcePoint" />
            <mxPoint x="2476.197387518142" y="1529.6161943319837" as="targetPoint" />
          </mxGeometry>
        </mxCell>
        <mxCell id="6IxY4aVY8u-sVjT7Nd2_-172" value="Controls Minion 12V" style="edgeLabel;html=1;align=center;verticalAlign=middle;resizable=0;points=[];spacingBottom=-1;" parent="6IxY4aVY8u-sVjT7Nd2_-171" vertex="1" connectable="0">
          <mxGeometry x="0.2479" relative="1" as="geometry">
            <mxPoint as="offset" />
          </mxGeometry>
        </mxCell>
        <mxCell id="6IxY4aVY8u-sVjT7Nd2_-173" style="edgeStyle=orthogonalEdgeStyle;rounded=0;orthogonalLoop=1;jettySize=auto;html=1;entryX=0.941;entryY=1.002;entryDx=0;entryDy=0;entryPerimeter=0;curved=1;exitX=0.25;exitY=1;exitDx=0;exitDy=0;fillColor=#a20025;strokeColor=#6F0000;strokeWidth=4;spacingBottom=-1;" parent="6IxY4aVY8u-sVjT7Nd2_-1" edge="1">
          <mxGeometry relative="1" as="geometry">
            <mxPoint x="2842.597968069666" y="1608.582995951417" as="sourcePoint" />
            <mxPoint x="2471.407837445573" y="1544.2396761133602" as="targetPoint" />
          </mxGeometry>
        </mxCell>
        <mxCell id="6IxY4aVY8u-sVjT7Nd2_-174" value="Controls Leader 12V x 2" style="edgeLabel;html=1;align=center;verticalAlign=middle;resizable=0;points=[];spacingBottom=-1;" parent="6IxY4aVY8u-sVjT7Nd2_-173" vertex="1" connectable="0">
          <mxGeometry x="-0.0195" y="-2" relative="1" as="geometry">
            <mxPoint x="-20" y="-3" as="offset" />
          </mxGeometry>
        </mxCell>
        <mxCell id="6IxY4aVY8u-sVjT7Nd2_-175" value="Controls Enclosure" style="rounded=1;whiteSpace=wrap;html=1;strokeWidth=4;spacingBottom=-1;" parent="6IxY4aVY8u-sVjT7Nd2_-1" vertex="1">
          <mxGeometry x="2385.1959361393324" y="1459.4234817813765" width="91.00145137880986" height="84.81619433198381" as="geometry" />
        </mxCell>
        <mxCell id="6IxY4aVY8u-sVjT7Nd2_-176" value="Horn" style="rounded=1;whiteSpace=wrap;html=1;strokeWidth=4;spacingBottom=-1;" parent="6IxY4aVY8u-sVjT7Nd2_-1" vertex="1">
          <mxGeometry x="2385.1959361393324" y="1412.6283400809716" width="67.05370101596516" height="27.784615384615385" as="geometry" />
        </mxCell>
        <mxCell id="6IxY4aVY8u-sVjT7Nd2_-177" value="Controls Switches" style="rounded=1;whiteSpace=wrap;html=1;strokeWidth=4;spacingBottom=-1;" parent="6IxY4aVY8u-sVjT7Nd2_-1" vertex="1">
          <mxGeometry x="2385.1959361393324" y="1313.1886639676113" width="91.00145137880986" height="84.81619433198381" as="geometry" />
        </mxCell>
        <mxCell id="6IxY4aVY8u-sVjT7Nd2_-178" value="Display" style="rounded=1;whiteSpace=wrap;html=1;rotation=-45;strokeWidth=4;spacingBottom=-1;" parent="6IxY4aVY8u-sVjT7Nd2_-1" vertex="1">
          <mxGeometry x="2382.250362844702" y="1247.1051497975707" width="88.00798258345428" height="27.784615384615385" as="geometry" />
        </mxCell>
        <mxCell id="6IxY4aVY8u-sVjT7Nd2_-179" value="Supplemental Enclosure" style="rounded=1;whiteSpace=wrap;html=1;strokeWidth=4;spacingBottom=-1;" parent="6IxY4aVY8u-sVjT7Nd2_-1" vertex="1">
          <mxGeometry x="2701.3062409288823" y="1361.4461538461537" width="88.60667634252539" height="169.63238866396762" as="geometry" />
        </mxCell>
        <mxCell id="6IxY4aVY8u-sVjT7Nd2_-180" value="Electronics Enclosure" style="rounded=1;whiteSpace=wrap;html=1;strokeWidth=4;spacingBottom=-1;" parent="6IxY4aVY8u-sVjT7Nd2_-1" vertex="1">
          <mxGeometry x="2806.6763425253985" y="1291.2534412955465" width="143.6865021770682" height="317.3295546558704" as="geometry" />
        </mxCell>
        <mxCell id="6IxY4aVY8u-sVjT7Nd2_-181" value="" style="endArrow=none;html=1;rounded=0;strokeWidth=4;spacingBottom=-1;" parent="6IxY4aVY8u-sVjT7Nd2_-1" edge="1">
          <mxGeometry width="50" height="50" relative="1" as="geometry">
            <mxPoint x="2853.374455732946" y="1667.808097165992" as="sourcePoint" />
            <mxPoint x="2844.9927431059505" y="1185.2331983805668" as="targetPoint" />
          </mxGeometry>
        </mxCell>
        <mxCell id="6IxY4aVY8u-sVjT7Nd2_-182" value="" style="endArrow=none;html=1;rounded=0;strokeWidth=4;spacingBottom=-1;" parent="6IxY4aVY8u-sVjT7Nd2_-1" edge="1">
          <mxGeometry width="50" height="50" relative="1" as="geometry">
            <mxPoint x="3294.0130624092885" y="1661.2275303643723" as="sourcePoint" />
            <mxPoint x="3101.2336719883883" y="1183.0396761133602" as="targetPoint" />
          </mxGeometry>
        </mxCell>
        <mxCell id="6IxY4aVY8u-sVjT7Nd2_-183" value="" style="endArrow=none;html=1;rounded=0;strokeWidth=4;spacingBottom=-1;" parent="6IxY4aVY8u-sVjT7Nd2_-1" edge="1">
          <mxGeometry width="50" height="50" relative="1" as="geometry">
            <mxPoint x="3098.838896952104" y="1664.1522267206476" as="sourcePoint" />
            <mxPoint x="3100.0362844702463" y="1184.502024291498" as="targetPoint" />
          </mxGeometry>
        </mxCell>
        <mxCell id="6IxY4aVY8u-sVjT7Nd2_-184" value="Subarray C" style="rounded=1;whiteSpace=wrap;html=1;strokeWidth=4;spacingBottom=-1;" parent="6IxY4aVY8u-sVjT7Nd2_-1" vertex="1">
          <mxGeometry x="1724.2380261248184" y="324.6412955465587" width="125.72568940493468" height="372.89878542510115" as="geometry" />
        </mxCell>
        <mxCell id="6IxY4aVY8u-sVjT7Nd2_-185" value="&lt;font style=&quot;font-size: 19px;&quot;&gt;Subarray A&lt;/font&gt;" style="rounded=1;whiteSpace=wrap;html=1;strokeWidth=4;spacingBottom=-1;" parent="6IxY4aVY8u-sVjT7Nd2_-1" vertex="1">
          <mxGeometry x="2119.375907111756" y="134.53603238866395" width="975.8708272859215" height="134.53603238866395" as="geometry" />
        </mxCell>
        <mxCell id="6IxY4aVY8u-sVjT7Nd2_-186" value="" style="endArrow=none;html=1;rounded=0;strokeWidth=4;spacingBottom=-1;" parent="6IxY4aVY8u-sVjT7Nd2_-1" edge="1">
          <mxGeometry width="50" height="50" relative="1" as="geometry">
            <mxPoint x="2070.283018867924" y="696.0777327935223" as="sourcePoint" />
            <mxPoint x="2070.283018867924" y="330.49068825910933" as="targetPoint" />
          </mxGeometry>
        </mxCell>
        <mxCell id="6IxY4aVY8u-sVjT7Nd2_-187" value="" style="endArrow=none;html=1;rounded=0;strokeWidth=4;spacingBottom=-1;" parent="6IxY4aVY8u-sVjT7Nd2_-1" edge="1">
          <mxGeometry width="50" height="50" relative="1" as="geometry">
            <mxPoint x="2121.7706821480406" y="693.1530364372469" as="sourcePoint" />
            <mxPoint x="2121.7706821480406" y="327.56599190283396" as="targetPoint" />
          </mxGeometry>
        </mxCell>
        <mxCell id="6IxY4aVY8u-sVjT7Nd2_-188" value="" style="endArrow=none;html=1;rounded=0;strokeWidth=4;spacingBottom=-1;" parent="6IxY4aVY8u-sVjT7Nd2_-1" edge="1">
          <mxGeometry width="50" height="50" relative="1" as="geometry">
            <mxPoint x="2187.626995645863" y="693.1530364372469" as="sourcePoint" />
            <mxPoint x="2187.626995645863" y="327.56599190283396" as="targetPoint" />
          </mxGeometry>
        </mxCell>
        <mxCell id="6IxY4aVY8u-sVjT7Nd2_-189" value="" style="endArrow=none;html=1;rounded=0;strokeWidth=4;spacingBottom=-1;" parent="6IxY4aVY8u-sVjT7Nd2_-1" edge="1">
          <mxGeometry width="50" height="50" relative="1" as="geometry">
            <mxPoint x="1846.3715529753263" y="329.02834008097165" as="sourcePoint" />
            <mxPoint x="2190.0217706821477" y="327.56599190283396" as="targetPoint" />
          </mxGeometry>
        </mxCell>
        <mxCell id="6IxY4aVY8u-sVjT7Nd2_-190" style="edgeStyle=orthogonalEdgeStyle;rounded=0;orthogonalLoop=1;jettySize=auto;html=1;entryX=0.25;entryY=0;entryDx=0;entryDy=0;fillColor=#a20025;strokeColor=#6F0000;curved=1;strokeWidth=4;spacingBottom=-1;" parent="6IxY4aVY8u-sVjT7Nd2_-1" source="6IxY4aVY8u-sVjT7Nd2_-184" edge="1">
          <mxGeometry relative="1" as="geometry">
            <Array as="points">
              <mxPoint x="2327" y="354" />
              <mxPoint x="2327" y="304" />
              <mxPoint x="2839" y="304" />
            </Array>
            <mxPoint x="2839.0058055152394" y="375.82348178137653" as="targetPoint" />
          </mxGeometry>
        </mxCell>
        <mxCell id="6IxY4aVY8u-sVjT7Nd2_-191" value="ARR+" style="edgeLabel;html=1;align=center;verticalAlign=middle;resizable=0;points=[];spacingBottom=-1;" parent="6IxY4aVY8u-sVjT7Nd2_-190" vertex="1" connectable="0">
          <mxGeometry x="0.4807" y="1" relative="1" as="geometry">
            <mxPoint as="offset" />
          </mxGeometry>
        </mxCell>
        <mxCell id="6IxY4aVY8u-sVjT7Nd2_-192" value="" style="endArrow=none;html=1;rounded=0;strokeWidth=4;spacingBottom=-1;" parent="6IxY4aVY8u-sVjT7Nd2_-1" edge="1">
          <mxGeometry width="50" height="50" relative="1" as="geometry">
            <mxPoint x="2188.8243831640057" y="327.56599190283396" as="sourcePoint" />
            <mxPoint x="2685.7402031930333" y="274.92145748987855" as="targetPoint" />
          </mxGeometry>
        </mxCell>
        <mxCell id="6IxY4aVY8u-sVjT7Nd2_-195" value="" style="endArrow=none;html=1;rounded=0;strokeWidth=4;spacingBottom=-1;" parent="6IxY4aVY8u-sVjT7Nd2_-1" edge="1">
          <mxGeometry width="50" height="50" relative="1" as="geometry">
            <mxPoint x="1845.1741654571842" y="701.9271255060728" as="sourcePoint" />
            <mxPoint x="2188.8243831640057" y="696.0777327935223" as="targetPoint" />
          </mxGeometry>
        </mxCell>
        <mxCell id="6IxY4aVY8u-sVjT7Nd2_-196" value="&lt;font style=&quot;font-size: 20px;&quot;&gt;Side View&lt;/font&gt;" style="text;html=1;strokeColor=none;fillColor=none;align=center;verticalAlign=middle;whiteSpace=wrap;rounded=0;spacingBottom=-1;strokeWidth=5;" parent="6IxY4aVY8u-sVjT7Nd2_-1" vertex="1">
          <mxGeometry x="305.33381712626993" y="561.5417004048583" width="158.055152394775" height="43.87044534412955" as="geometry" />
        </mxCell>
        <mxCell id="6IxY4aVY8u-sVjT7Nd2_-197" value="&lt;h1&gt;Notes&lt;/h1&gt;&lt;p&gt;&lt;/p&gt;&lt;ul&gt;&lt;li&gt;Not to scale (lol)&lt;/li&gt;&lt;li&gt;GND lines are not drawn but are there with PWR lines&lt;/li&gt;&lt;li&gt;RTD lines include 4 wires&lt;/li&gt;&lt;ul&gt;&lt;li&gt;GND&lt;/li&gt;&lt;li&gt;PWR&lt;/li&gt;&lt;li&gt;[TBD]&lt;/li&gt;&lt;li&gt;[TBD]&lt;/li&gt;&lt;/ul&gt;&lt;li&gt;CAN wires include both CAN Hi and CAN Low (in twisted pair form)&lt;/li&gt;&lt;li&gt;No wires will go through driver pod&lt;/li&gt;&lt;li&gt;HV lines (like BAT+) will be put into the left side of the Electronics Enclosure&lt;/li&gt;&lt;li&gt;Wires are split between the views for the sake of visibility&amp;nbsp;&lt;/li&gt;&lt;li&gt;Line squiggles are not intended :(&lt;/li&gt;&lt;li&gt;Contactors not yet included&lt;/li&gt;&lt;/ul&gt;&lt;p&gt;&lt;/p&gt;" style="text;html=1;strokeColor=none;fillColor=none;spacing=5;spacingTop=-20;whiteSpace=wrap;overflow=hidden;rounded=0;spacingBottom=-1;" parent="6IxY4aVY8u-sVjT7Nd2_-1" vertex="1">
          <mxGeometry x="1101" y="984.1" width="482" height="471" as="geometry" />
        </mxCell>
      </root>
    </mxGraphModel>
  </diagram>
</mxfile>
